<svg viewBox="0 0 512 512" id="Layer_1" version="1.1" xml:space="preserve" xmlns="http://www.w3.org/2000/svg" xmlns:xlink="http://www.w3.org/1999/xlink" fill="#000000"><g id="SVGRepo_bgCarrier" stroke-width="0"></g><g id="SVGRepo_tracerCarrier" stroke-linecap="round" stroke-linejoin="round"></g><g id="SVGRepo_iconCarrier"> <style type="text/css"> .st0{fill:#000000;} .st1{fill:#FFDE00;} </style> <g> <path class="st0" d="M255.7,261.2c8.8-12.7,15-27.4,17.9-43.1l39.5-5.5v-29.7l-39.5-5.5c-2.9-15.8-9.1-30.4-17.9-43.1l24-31.8 l-21-21l-31.8,24c-12.7-8.8-27.4-15-43.1-17.9l-5.5-39.5h-29.7L143,87.6c-15.8,2.9-30.4,9.1-43.1,17.9l-31.8-24l-21,21l24,31.8 c-8.8,12.7-15,27.4-17.9,43.1l-39.5,5.5v29.7l39.5,5.5c2.9,15.8,9.1,30.4,17.9,43.1l-24,31.8l21,21l31.8-24 c12.7,8.8,27.4,15,43.1,17.9l5.5,39.5h29.7l5.5-39.5c15.8-2.9,30.4-9.1,43.1-17.9l31.8,24l21-21L255.7,261.2z M163.4,274 c-42.1,0-76.3-34.2-76.3-76.3c0-42.1,34.2-76.3,76.3-76.3c42.1,0,76.3,34.2,76.3,76.3C239.6,239.9,205.5,274,163.4,274z"></path> <path class="st1" d="M497.4,340.1l-19.9-2.8c-2.4-12.8-7.4-24.6-14.5-34.9l12.1-16.1c-5.6-7.3-12.2-13.8-19.4-19.4l-16,12.1 c-10.3-7.1-22.2-12.1-35-14.5l-2.8-19.9c-4.5-0.6-9.1-0.8-13.7-0.8c-4.6,0-9.2,0.3-13.7,0.8l-2.8,19.9 c-12.8,2.3-24.6,7.4-34.9,14.5l-16.1-12.1c-7.3,5.6-13.8,12.2-19.4,19.4l12.1,16.1c-7.1,10.3-12.1,22.2-14.5,34.9l-19.9,2.8 c-0.6,4.5-0.9,9.1-0.9,13.7s0.3,9.2,0.9,13.7l19.9,2.8c2.3,12.8,7.4,24.6,14.5,35l-12.1,16.1c5.6,7.3,12.1,13.8,19.4,19.4 l16.1-12.1c10.3,7.1,22.2,12.1,34.9,14.5l2.8,19.9c4.5,0.6,9.1,0.8,13.7,0.8c4.7,0,9.2-0.3,13.7-0.8l2.8-19.9 c12.8-2.3,24.7-7.4,35-14.5l16,12.1c7.3-5.6,13.8-12.2,19.4-19.4L463,405.3c7.1-10.3,12.1-22.2,14.5-35l19.9-2.8 c0.6-4.5,0.9-9.1,0.9-13.7S498,344.6,497.4,340.1z M388.2,417.8c-35.3,0-63.9-28.6-63.9-64c0-35.3,28.6-63.9,63.9-63.9 c35.3,0,64,28.6,64,63.9C452.2,389.1,423.6,417.8,388.2,417.8z"></path> <path class="st1" d="M163.4,147.6c-27.7,0-50.1,22.4-50.1,50.1s22.4,50.1,50.1,50.1s50.1-22.4,50.1-50.1S191,147.6,163.4,147.6z M161.1,190.7h4.5c8.8,0,16,7.2,16,16c0,7.2-4.8,13.3-11.3,15.3v1.8c0,3.9-3.1,7-7,7s-7-3.1-7-7v-1.1h-4.3c-3.9,0-7-3.1-7-7 s3.1-7,7-7h13.6c1.1,0,2-0.9,2-2s-0.9-2-2-2h-4.5c-8.8,0-16-7.2-16-16c0-7.2,4.8-13.3,11.3-15.3v-1.8c0-3.9,3.1-7,7-7s7,3.1,7,7 v1.1h4.3c3.9,0,7,3.1,7,7s-3.1,7-7,7h-13.6c-1.1,0-2,0.9-2,2S160,190.7,161.1,190.7z"></path> <path class="st0" d="M427.2,323.2h-8.8c-2.9,0-5.5,1.8-6.6,4.6l-4.6,12.4h-54.8c-2.3,0-4.5,1.2-5.8,3.1c-1.3,1.9-1.6,4.4-0.7,6.5 l13,32.5c1.1,2.7,3.6,4.4,6.5,4.4H400c2.9,0,5.5-1.8,6.6-4.6l12.1-32.5c0,0,0,0,0,0l4.7-12.4h3.9c3.9,0,7-3.1,7-7 C434.2,326.4,431.1,323.2,427.2,323.2z M395.1,372.7h-24.9l-7.4-18.5H402L395.1,372.7z"></path> <path class="st0" d="M379.8,393.1c-0.2-0.4-0.4-0.8-0.6-1.2c-0.3-0.4-0.5-0.7-0.9-1.1c-1.6-1.6-4-2.4-6.3-1.9 c-0.4,0.1-0.9,0.2-1.3,0.4c-0.4,0.2-0.8,0.4-1.2,0.7c-0.4,0.3-0.8,0.5-1.1,0.9c-0.3,0.3-0.6,0.7-0.9,1.1c-0.3,0.4-0.5,0.8-0.6,1.2 c-0.2,0.4-0.3,0.9-0.4,1.3c-0.1,0.4-0.1,0.9-0.1,1.4c0,1.8,0.8,3.6,2.1,5c1.3,1.3,3.1,2,4.9,2c1.8,0,3.7-0.8,5-2c1.3-1.3,2-3.1,2-5 c0-0.5,0-0.9-0.1-1.4C380.1,394,380,393.6,379.8,393.1z"></path> <path class="st0" d="M397.7,393.1c-0.2-0.4-0.4-0.8-0.6-1.2c-0.3-0.4-0.5-0.7-0.9-1.1c-0.3-0.3-0.7-0.6-1.1-0.9 c-0.4-0.3-0.8-0.5-1.2-0.7c-0.4-0.2-0.9-0.3-1.3-0.4c-2.3-0.4-4.7,0.3-6.3,1.9c-0.3,0.3-0.6,0.7-0.9,1.1c-0.3,0.4-0.5,0.8-0.6,1.2 c-0.2,0.4-0.3,0.9-0.4,1.3c-0.1,0.4-0.1,0.9-0.1,1.4c0,1.8,0.7,3.6,2,5c0.3,0.3,0.7,0.6,1.1,0.9c0.4,0.3,0.8,0.5,1.2,0.6 c0.4,0.2,0.9,0.3,1.3,0.4c0.5,0.1,0.9,0.1,1.4,0.1c1.8,0,3.6-0.8,5-2c1.3-1.3,2-3.1,2-5c0-0.5,0-0.9-0.1-1.4 C398,394,397.9,393.6,397.7,393.1z"></path> </g> </g></svg>