<svg viewBox="0 0 512 512" id="Layer_1" version="1.1" xml:space="preserve" xmlns="http://www.w3.org/2000/svg" xmlns:xlink="http://www.w3.org/1999/xlink" fill="#000000"><g id="SVGRepo_bgCarrier" stroke-width="0"></g><g id="SVGRepo_tracerCarrier" stroke-linecap="round" stroke-linejoin="round"></g><g id="SVGRepo_iconCarrier"> <style type="text/css"> .st0{fill:#000000;} .st1{fill:#FFDE00;} </style> <g> <path class="st0" d="M390,457.3h-98V40.7h-64v416.5h-98c-3.9,0-7,3.1-7,7s3.1,7,7,7h260c3.9,0,7-3.1,7-7S393.9,457.3,390,457.3z"></path> <path class="st0" d="M367.5,185.5c1.4,0,2.5-1.1,2.5-2.5v-8.6c0-1.4-1.1-2.5-2.5-2.5s-2.5,1.1-2.5,2.5v8.6 C365,184.4,366.1,185.5,367.5,185.5L367.5,185.5z"></path> <path class="st0" d="M413.5,222.2c-1.4,0-2.5,1.1-2.5,2.5v8.6c0,1.4,1.1,2.5,2.5,2.5h0c1.4,0,2.5-1.1,2.5-2.5v-8.6 C416,223.3,414.9,222.2,413.5,222.2z"></path> <path class="st1" d="M449,134.5H306v138.8h143l40-69.4L449,134.5z M351,183.1v-8.7c0-9.1,7.4-16.5,16.5-16.5 c9.1,0,16.5,7.4,16.5,16.5v8.7c0,9.1-7.4,16.5-16.5,16.5C358.4,199.5,351,192.2,351,183.1z M368.7,245.1c-1.3,0-2.6-0.4-3.8-1.1 c-3.3-2.1-4.2-6.4-2.1-9.7l43.7-68.5c2.1-3.3,6.4-4.2,9.7-2.1s4.2,6.4,2.1,9.7l-43.7,68.5C373.2,244,371,245.1,368.7,245.1z M430,233.3c0,9.1-7.4,16.5-16.5,16.5c-9.1,0-16.5-7.4-16.5-16.5v-8.7c0-9.1,7.4-16.5,16.5-16.5c9.1,0,16.5,7.4,16.5,16.5V233.3z"></path> <path class="st1" d="M214,40.8H63l-40,64.4l40,64.4h151V40.8z M136,98.1h6.7c11.1,0,20.2,9.1,20.2,20.2c0,9.9-7.2,18.1-16.5,19.9 v5.2c0,3.9-3.1,7-7,7c-3.9,0-7-3.1-7-7v-4.9h-9.5c-3.9,0-7-3.1-7-7c0-3.9,3.1-7,7-7h19.9c3.4,0,6.2-2.8,6.2-6.2 c0-3.4-2.8-6.2-6.2-6.2H136c-11.1,0-20.2-9.1-20.2-20.2c0-9.9,7.1-18.1,16.5-19.9v-5.2c0-3.9,3.1-7,7-7c3.9,0,7,3.1,7,7v4.9h9.5 c3.9,0,7,3.1,7,7c0,3.9-3.1,7-7,7H136c-3.4,0-6.2,2.8-6.2,6.2C129.8,95.3,132.6,98.1,136,98.1z"></path> </g> </g></svg>