<svg viewBox="0 0 512 512" id="Layer_1" version="1.1" xml:space="preserve" xmlns="http://www.w3.org/2000/svg" xmlns:xlink="http://www.w3.org/1999/xlink" fill="#000000"><g id="SVGRepo_bgCarrier" stroke-width="0"></g><g id="SVGRepo_tracerCarrier" stroke-linecap="round" stroke-linejoin="round"></g><g id="SVGRepo_iconCarrier"> <style type="text/css"> .st0{fill:#FFDE00;} .st1{fill:#000000;} </style> <g> <path class="st0" d="M43.4,468.6c0,10.6,8.6,19.2,19.2,19.2h208.5c10.6,0,19.2-8.6,19.2-19.2V236.7H43.4V468.6z M240.2,443.2h-38 v-38h38V443.2z M200.4,265.9c2.7-2.7,7.2-2.7,9.9,0l8.4,8.4l21.4-21.4c2.7-2.7,7.2-2.7,9.9,0c2.7,2.7,2.7,7.2,0,9.9l-26.3,26.3 c-1.4,1.4-3.1,2.1-4.9,2.1c-1.8,0-3.6-0.7-4.9-2.1l-13.3-13.3C197.7,273.1,197.7,268.7,200.4,265.9z M200.4,341.9 c2.7-2.7,7.2-2.7,9.9,0l8.4,8.4l21.4-21.4c2.7-2.7,7.2-2.7,9.9,0s2.7,7.2,0,9.9l-26.3,26.3c-1.4,1.4-3.1,2.1-4.9,2.1 c-1.8,0-3.6-0.7-4.9-2.1l-13.3-13.3C197.7,349.1,197.7,344.7,200.4,341.9z M96.1,265.2h70.8c3.9,0,7,3.1,7,7s-3.1,7-7,7H96.1 c-3.9,0-7-3.1-7-7S92.2,265.2,96.1,265.2z M96.1,341.2h70.8c3.9,0,7,3.1,7,7s-3.1,7-7,7H96.1c-3.9,0-7-3.1-7-7 S92.2,341.2,96.1,341.2z M96.1,417.2h70.8c3.9,0,7,3.1,7,7s-3.1,7-7,7H96.1c-3.9,0-7-3.1-7-7S92.2,417.2,96.1,417.2z"></path> <path class="st0" d="M358.3,24.2c-52.5,0-96.4,36.6-107.6,85.7h1.8v23.9h18.6c2.3,0,4.6,0.2,6.8,0.7c0-44.3,36-80.3,80.4-80.3 c44.4,0,80.4,36,80.4,80.4c0,44.4-36,80.4-80.4,80.4c-20.8,0-39.8-7.9-54-20.9v36.8c16,9,34.4,14.1,54,14.1 c61,0,110.4-49.4,110.4-110.4C468.6,73.6,419.2,24.2,358.3,24.2z"></path> <path class="st1" d="M279.3,149.6c-2.5-1.2-5.3-1.9-8.2-1.9h-32.6v-23.9h-38v23.9h-67.3v-23.9h-38v23.9H62.5 c-10.6,0-19.2,8.6-19.2,19.2v55.8h246.8V167C290.2,159.3,285.8,152.7,279.3,149.6z"></path> <path class="st1" d="M361.5,153.4h-19.4c-3.9,0-7,3.1-7,7c0,3.9,3.1,7,7,7h9.2v4.6c0,3.9,3.1,7,7,7c3.9,0,7-3.1,7-7v-5 c9.2-1.8,16.1-9.9,16.1-19.5c0-11-8.9-19.9-19.9-19.9H355c-3.3,0-5.9-2.7-5.9-5.9c0-3.3,2.7-5.9,5.9-5.9h19.4c3.9,0,7-3.1,7-7 c0-3.9-3.1-7-7-7h-9.1v-4.6c0-3.9-3.1-7-7-7c-3.9,0-7,3.1-7,7v5c-9.2,1.8-16.2,9.8-16.2,19.5c0,11,8.9,19.9,19.9,19.9h6.5 c3.3,0,5.9,2.6,5.9,5.9C367.4,150.7,364.8,153.4,361.5,153.4z"></path> </g> </g></svg>