<svg viewBox="0 0 512 512" id="Layer_1" version="1.1" xml:space="preserve" xmlns="http://www.w3.org/2000/svg" xmlns:xlink="http://www.w3.org/1999/xlink" fill="#000000"><g id="SVGRepo_bgCarrier" stroke-width="0"></g><g id="SVGRepo_tracerCarrier" stroke-linecap="round" stroke-linejoin="round"></g><g id="SVGRepo_iconCarrier"> <style type="text/css"> .st0{fill:#000000;} .st1{fill:#FFDE00;} </style> <g> <path class="st0" d="M197,472.5h118v-60.2H197V472.5z M256,428.9c7.5,0,13.5,6,13.5,13.5c0,7.5-6,13.5-13.5,13.5s-13.5-6-13.5-13.5 C242.5,435,248.5,428.9,256,428.9z"></path> <path class="st0" d="M142,446.7c0,14.2,11.5,25.8,25.8,25.8H183v-60.2h-41V446.7z"></path> <path class="st0" d="M183,39.5h-15.2C153.5,39.5,142,51,142,65.3v34.4h41V39.5z"></path> <path class="st0" d="M315,39.5H197v60.2h118V39.5z M294.5,76.6h-77c-3.9,0-7-3.1-7-7c0-3.9,3.1-7,7-7h77c3.9,0,7,3.1,7,7 C301.5,73.5,298.4,76.6,294.5,76.6z"></path> <path class="st0" d="M344.2,39.5H329v60.2h41V65.3C370,51,358.5,39.5,344.2,39.5z"></path> <path class="st0" d="M329,472.5h15.2c14.2,0,25.8-11.5,25.8-25.8v-34.4h-41V472.5z"></path> <path class="st1" d="M142,398.3h228V113.7H142V398.3z M317,319c0,15-12.2,27.3-27.3,27.3S262.5,334,262.5,319v-18.5 c0-15,12.2-27.3,27.3-27.3s27.3,12.2,27.3,27.3V319z M306.5,176.8c3.3,2.1,4.2,6.4,2.1,9.7L215.1,333c-1.3,2.1-3.6,3.2-5.9,3.2 c-1.3,0-2.6-0.4-3.8-1.1c-3.3-2.1-4.2-6.4-2.1-9.7L296.9,179C298.9,175.7,303.3,174.8,306.5,176.8z M195,193 c0-15,12.2-27.3,27.3-27.3s27.3,12.2,27.3,27.3v18.5c0,15-12.2,27.3-27.3,27.3S195,226.5,195,211.5V193z"></path> <path class="st0" d="M222.3,224.8c7.3,0,13.3-5.9,13.3-13.3V193c0-7.3-5.9-13.3-13.3-13.3S209,185.7,209,193v18.5 C209,218.8,214.9,224.8,222.3,224.8z"></path> <path class="st0" d="M289.8,287.3c-7.3,0-13.3,5.9-13.3,13.3V319c0,7.3,5.9,13.3,13.3,13.3S303,326.3,303,319v-18.5 C303,293.2,297.1,287.3,289.8,287.3z"></path> <path class="st0" d="M415,193.6c1.8,0,3.6-0.7,5-2.1l39.7-39.7c2.7-2.7,2.7-7.2,0-9.9c-2.7-2.7-7.2-2.7-9.9,0L410,181.6 c-2.7,2.7-2.7,7.2,0,9.9C411.4,192.9,413.2,193.6,415,193.6z"></path> <path class="st0" d="M420,320.5c-2.7-2.7-7.2-2.7-9.9,0c-2.7,2.7-2.7,7.2,0,9.9l39.7,39.7c1.4,1.4,3.2,2.1,5,2.1s3.6-0.7,5-2.1 c2.7-2.7,2.7-7.2,0-9.9L420,320.5z"></path> <path class="st0" d="M461,249h-45.3c-3.9,0-7,3.1-7,7s3.1,7,7,7H461c3.9,0,7-3.1,7-7S464.9,249,461,249z"></path> <path class="st0" d="M62.3,142c-2.7-2.7-7.2-2.7-9.9,0c-2.7,2.7-2.7,7.2,0,9.9L92,191.5c1.4,1.4,3.2,2.1,5,2.1s3.6-0.7,5-2.1 c2.7-2.7,2.7-7.2,0-9.9L62.3,142z"></path> <path class="st0" d="M92,320.5l-39.7,39.7c-2.7,2.7-2.7,7.2,0,9.9c1.4,1.4,3.2,2.1,5,2.1s3.6-0.7,5-2.1l39.7-39.7 c2.7-2.7,2.7-7.2,0-9.9C99.2,317.7,94.8,317.7,92,320.5z"></path> <path class="st0" d="M96.3,263c3.9,0,7-3.1,7-7s-3.1-7-7-7H51c-3.9,0-7,3.1-7,7s3.1,7,7,7H96.3z"></path> </g> </g></svg>