<svg viewBox="0 0 512 512" id="Layer_1" version="1.1" xml:space="preserve" xmlns="http://www.w3.org/2000/svg" xmlns:xlink="http://www.w3.org/1999/xlink" fill="#ffffff"><g id="SVGRepo_bgCarrier" stroke-width="0"></g><g id="SVGRepo_tracerCarrier" stroke-linecap="round" stroke-linejoin="round"></g><g id="SVGRepo_iconCarrier"> <style type="text/css"> .st0{fill:#FFDE00;} .st1{fill:#ffffff;} </style> <g> <path class="st0" d="M465.3,196h-25.1c5.1,9.3,6.7,20.1,4.4,30.6c-2.5,11.5-9.4,21.4-19.3,27.7c-7.1,4.6-15.4,7-23.8,7 c-15.1,0-29-7.6-37.2-20.3l-28.9-45H176.6l-28.9,45c-8.2,12.7-22.1,20.3-37.2,20.3c-8.5,0-16.7-2.4-23.8-7 c-9.9-6.4-16.8-16.2-19.3-27.7c-2.3-10.5-0.7-21.3,4.4-30.6H46.7c-9.9,0-18,8.1-18,18v52.8c0,9.9,8.1,18,18,18h418.6 c9.9,0,18-8.1,18-18v-52.8C483.3,204.1,475.2,196,465.3,196z"></path> <path class="st0" d="M91.9,442.6c2.7,13.6,14.7,23.5,28.6,23.5h271.1c13.9,0,25.9-9.8,28.6-23.5l28.4-143.7h-385L91.9,442.6z M375,434.2L398.7,314c0.8-3.8,4.4-6.3,8.2-5.5c3.8,0.8,6.3,4.4,5.5,8.2l-23.7,120.2c-0.7,3.3-3.6,5.6-6.9,5.6 c-0.5,0-0.9,0-1.4-0.1C376.7,441.7,374.2,438,375,434.2z M186.8,340.3h138.5c13,0,23.5,10.5,23.5,23.5c0,13-10.5,23.5-23.5,23.5 H186.8c-13,0-23.5-10.5-23.5-23.5C163.2,350.8,173.8,340.3,186.8,340.3z M105,308.5c3.8-0.8,7.5,1.7,8.2,5.5L137,434.2 c0.8,3.8-1.7,7.5-5.5,8.2c-0.5,0.1-0.9,0.1-1.4,0.1c-3.3,0-6.2-2.3-6.9-5.6L99.5,316.7C98.8,312.9,101.3,309.2,105,308.5z"></path> <path class="st1" d="M94.3,242.6c14,9,32.7,4.9,41.7-9.1l24-37.5l66.5-103.7c3.2-5,4.8-10.7,4.8-16.3c0-9.9-4.9-19.6-13.9-25.4 c-14-9-32.7-4.9-41.7,9.1L88.3,196.1l-3.1,4.9C76.2,215,80.3,233.6,94.3,242.6z"></path> <path class="st1" d="M352,196.1l24,37.5c9,14,27.6,18.1,41.7,9.1c14-9,18.1-27.6,9.1-41.7l-3.1-4.9L336.3,59.8 c-9-14-27.6-18.1-41.7-9.1c-9,5.8-13.9,15.5-13.9,25.4c0,5.6,1.5,11.2,4.8,16.3L352,196.1z"></path> </g> </g></svg>