<svg viewBox="0 0 512 512" id="Layer_1" version="1.1" xml:space="preserve" xmlns="http://www.w3.org/2000/svg" xmlns:xlink="http://www.w3.org/1999/xlink" fill="#FFFFFF" stroke="#FFFFFF"><g id="SVGRepo_bgCarrier" stroke-width="0"></g><g id="SVGRepo_tracerCarrier" stroke-linecap="round" stroke-linejoin="round"></g><g id="SVGRepo_iconCarrier"> <style type="text/css"> .st0{fill:#FFDE00FFFFF;} .st1{fill:#FFDE00;} </style> <g> <path class="st0" d="M435.6,140.5c-2.9-2.6-7.3-2.3-9.9,0.5c-2.6,2.9-2.3,7.3,0.5,9.9c10.7,9.6,16.5,22.8,16.5,37.2 c0,12.4-4.6,24.4-13,33.6c-2.6,2.9-2.4,7.3,0.5,9.9c1.3,1.2,3,1.8,4.7,1.8c1.9,0,3.8-0.8,5.2-2.3c10.7-11.8,16.6-27.1,16.6-43 C456.8,169.7,449.2,152.7,435.6,140.5z"></path> <path class="st0" d="M327.6,34.4c2.7-0.4,5.5-0.7,8.2-0.7c24.3,0,45.5,18.1,49.5,42.1c0.6,3.4,3.5,5.9,6.9,5.9c0.4,0,0.8,0,1.1-0.1 c3.8-0.6,6.4-4.2,5.8-8c-5-30.7-32.2-53.8-63.3-53.8c-3.5,0-7,0.3-10.5,0.9c-3.8,0.6-6.4,4.2-5.8,8C320.2,32.5,323.8,35,327.6,34.4 z"></path> <path class="st0" d="M107.9,96c0.1,0,0.3,0,0.4,0c3.7,0,6.8-2.9,7-6.6c1.6-26.4,23.6-47.1,50-47.1c1,0,2.1,0,3.2,0.1 c3.9,0.2,7.2-2.7,7.4-6.5c0.2-3.9-2.7-7.2-6.5-7.4c-1.3-0.1-2.7-0.1-4-0.1c-33.9,0-62,26.5-64,60.3C101.1,92.5,104.1,95.8,107.9,96 z"></path> <path class="st0" d="M85.8,239.2c-10.7-9.6-16.5-22.8-16.5-37.2c0-12.4,4.6-24.4,13-33.6c2.6-2.9,2.4-7.3-0.5-9.9 c-2.9-2.6-7.3-2.4-9.9,0.5c-10.7,11.8-16.6,27.1-16.6,43c0,18.5,7.5,35.4,21.2,47.7c1.3,1.2,3,1.8,4.7,1.8c1.9,0,3.8-0.8,5.2-2.3 C88.9,246.2,88.6,241.8,85.8,239.2z"></path> <path class="st0" d="M293.1,351.9c9.5,0,18.8-5.4,23-14.9c4.6-10.3,15.5-16.2,26.7-14.6c8.5,1.3,16.5-1.8,21.9-7.5 c4.3-4.5,7-10.6,7-17.4c0-0.2,0-0.4,0-0.7c0-0.2,0-0.4,0-0.6c0-11,7.2-20.8,17.8-24.1c11-3.4,17.8-13.5,17.8-24.1 c0-3.9-0.9-7.8-2.8-11.5c-1.9-3.7-2.8-7.6-2.8-11.5c0-6.8,2.8-13.6,8-18.5c5.4-5,8-11.7,8-18.5c0-7.6-3.4-15.1-10-20.1 c-6.4-4.9-10-12.4-10-20.1c0-3.1,0.6-6.2,1.7-9.2c1.2-3,1.7-6.1,1.7-9.2c0-11.6-8.1-22.3-20.2-24.7c-5.5-1.1-10.3-4-13.9-8 c-3.6-4-5.8-9.2-6.3-14.8c-1-13.5-12.3-23.3-25.1-23.3c-2.1,0-4.2,0.3-6.3,0.8c-2.1,0.5-4.2,0.8-6.2,0.8c-8.8,0-17.2-4.7-21.8-12.6 c-4.7-8.2-13.2-12.6-21.9-12.6c-5.7,0-11.4,1.9-16.2,5.9c-4.7,3.9-10.4,5.9-16.2,5.9c-4.9,0-9.9-1.4-14.2-4.4 c-4.4-3-9.3-4.4-14.1-4.4c-9.5,0-18.8,5.4-23,14.9c-4.1,9.1-13.2,14.9-23,14.9c-1.2,0-2.5-0.1-3.7-0.3 c-15.3-2.3-28.9,9.6-28.9,24.9c0,0.2,0,0.4,0,0.7c0,0.2,0,0.4,0,0.6c0,11-7.2,20.8-17.8,24.1c-11,3.4-17.8,13.5-17.8,24.1 c0,3.9,0.9,7.8,2.8,11.5c1.9,3.6,2.8,7.6,2.8,11.5c0,6.8-2.8,13.6-8,18.5c-5.4,5-8,11.7-8,18.5c0,7.6,3.4,15.1,10,20.1 c6.4,4.9,10,12.4,10,20.1c0,3.1-0.6,6.2-1.7,9.2c-1.2,3-1.7,6.1-1.7,9.2c0,11.6,8.1,22.3,20.2,24.7c5.5,1.1,10.3,4,13.9,8 c3.3,3.7,5.4,8.3,6.1,13.4c0.1,0.5,0.1,0.9,0.1,1.4c1,13.5,12.3,23.3,25.1,23.3c2.1,0,4.2-0.3,6.3-0.8c2.1-0.5,4.2-0.8,6.2-0.8 c8.8,0,17.2,4.7,21.8,12.6c4.7,8.2,13.2,12.6,21.9,12.6c4.1,0,8.2-1,12-3.1c1.4-0.8,2.8-1.7,4.2-2.8c4.4-3.6,9.7-5.6,15.1-5.9 c0.4,0,0.8,0,1.1,0c4.9,0,9.9,1.4,14.2,4.4C283.3,350.5,288.3,351.9,293.1,351.9z M256,306.1c-61.3,0-111-49.7-111-111 c0-61.3,49.7-111,111-111s111,49.7,111,111C367,256.4,317.3,306.1,256,306.1z"></path> <path class="st1" d="M314.6,172.5l-29.6-3.6c-3.3-0.4-6.2-2.5-7.6-5.5l-12.6-27.1c-3.5-7.5-14.1-7.5-17.5,0l-12.6,27.1 c-1.4,3-4.3,5.1-7.6,5.5l-29.6,3.6c-8.2,1-11.4,11.1-5.4,16.7l21.9,20.3c2.4,2.3,3.5,5.7,2.9,8.9l-5.7,29.3 c-1.6,8.1,7,14.3,14.2,10.3l26.1-14.5c2.9-1.6,6.5-1.6,9.4,0l26.1,14.5c7.2,4,15.8-2.2,14.2-10.3l-5.7-29.3 c-0.6-3.3,0.5-6.7,2.9-8.9l21.9-20.3C326,183.6,322.7,173.5,314.6,172.5z"></path> <path class="st1" d="M198.4,349.4c-2-3.5-5.7-5.6-9.7-5.6c-0.9,0-1.8,0.1-2.8,0.4c-3.1,0.8-6.4,1.2-9.7,1.2 c-14.3,0-27-7.9-33.9-19.6L86.5,449.6l68.9-26.5l25.7,69.2l55.8-123.5c-1.5,0.2-2.9,0.3-4.4,0.3C218.4,369,205.4,361.5,198.4,349.4 z"></path> <path class="st1" d="M346.6,336.7c-1.9,0-3.9-0.2-5.8-0.4c-0.6-0.1-1.1-0.1-1.7-0.1c-4.4,0-8.4,2.6-10.2,6.6 c-6.3,14-20.4,23.1-35.8,23.1c-7.9,0-15.5-2.3-22-6.8c-0.1-0.1-0.3-0.2-0.4-0.2l60.2,133.4l25.7-69.2l68.9,26.5l-54.7-121.2 C364,333.7,355.4,336.7,346.6,336.7z"></path> </g> </g></svg>