<svg viewBox="0 0 512 512" id="Layer_1" version="1.1" xml:space="preserve" xmlns="http://www.w3.org/2000/svg" xmlns:xlink="http://www.w3.org/1999/xlink" fill="#FFFFFF" stroke="#FFFFFF"><g id="SVGRepo_bgCarrier" stroke-width="0"></g><g id="SVGRepo_tracerCarrier" stroke-linecap="round" stroke-linejoin="round"></g><g id="SVGRepo_iconCarrier"> <style type="text/css"> .st0{fill:#FFDE00FFFFF;} .st1{fill:#FFDE00;} </style> <g> <circle class="st0" cx="229.7" cy="111.9" r="72.4"></circle> <polygon class="st1" points="238.5,359.9 279.2,338.8 279.2,251.3 279.2,241.8 279.2,218.3 264.3,218.3 264.3,263.2 195.1,263.2 195.1,218.3 153.2,218.3 152.5,219.8 152.5,472.5 208.5,472.5 208.5,423.2 238.5,423.2 "></polygon> <path class="st0" d="M45.2,287.5l-18.4,37.1l82.4,38.5c9.1,4.2,19.9,0.4,24.2-8.6l5-10.3v-95.3L106.5,315L45.2,287.5z"></path> <polygon class="st0" points="414.5,227.8 414.5,192.9 293.2,192.9 293.2,227.8 368.8,227.8 368.8,255.7 353.8,253.2 306.9,260.9 293.2,263.2 293.2,347.3 252.5,368.4 252.5,423.2 455.2,423.2 455.2,368.4 414.5,347.3 414.5,263.2 398.7,260.6 398.7,227.8 "></polygon> <polygon class="st0" points="469.2,437.2 252.5,437.2 222.5,437.2 222.5,472.5 485.2,472.5 485.2,437.2 "></polygon> </g> </g></svg>