<svg viewBox="0 0 512 512" id="Layer_1" version="1.1" xml:space="preserve" xmlns="http://www.w3.org/2000/svg" xmlns:xlink="http://www.w3.org/1999/xlink" fill="#ffffff"><g id="SVGRepo_bgCarrier" stroke-width="0"></g><g id="SVGRepo_tracerCarrier" stroke-linecap="round" stroke-linejoin="round"></g><g id="SVGRepo_iconCarrier"> <style type="text/css"> .st0{fill:#FFDE00FFFFF;} .st1{fill:#FFDE00;} </style> <g> <path class="st1" d="M460.7,79.4H117.1c-16.4,0-29.7,13.3-29.7,29.8v51h403v-51C490.4,92.7,477.1,79.4,460.7,79.4z M140.3,135.3 c-8.6,0-15.5-6.9-15.5-15.5s6.9-15.5,15.5-15.5s15.5,6.9,15.5,15.5S148.8,135.3,140.3,135.3z M202.5,135.3 c-8.6,0-15.5-6.9-15.5-15.5s6.9-15.5,15.5-15.5s15.5,6.9,15.5,15.5S211,135.3,202.5,135.3z"></path> <path class="st0" d="M87.4,190.6h32.3v14c0,7.1,5.7,12.8,12.8,12.8s12.8-5.7,12.8-12.8v-14h55.5l60.9,84.1L212.5,325l-9.9-9.7v71 H87.4v16.6c0,16.4,13.3,29.8,29.7,29.8h343.5c16.4,0,29.7-13.3,29.7-29.8V174.1h-403V190.6z M284.4,203.5h142c3.9,0,7,3.1,7,7 s-3.1,7-7,7h-142c-3.9,0-7-3.1-7-7S280.6,203.5,284.4,203.5z M284.4,242.5h142c3.9,0,7,3.1,7,7s-3.1,7-7,7h-142c-3.9,0-7-3.1-7-7 S280.6,242.5,284.4,242.5z M284.4,281.4h142c3.9,0,7,3.1,7,7s-3.1,7-7,7h-142c-3.9,0-7-3.1-7-7S280.6,281.4,284.4,281.4z M284.4,320.4h142c3.9,0,7,3.1,7,7s-3.1,7-7,7h-142c-3.9,0-7-3.1-7-7S280.6,320.4,284.4,320.4z M284.4,359.4h142c3.9,0,7,3.1,7,7 s-3.1,7-7,7h-142c-3.9,0-7-3.1-7-7S280.6,359.4,284.4,359.4z"></path> <path class="st1" d="M188.6,372.2v-90.3l23.7,23.2l31.1-31.8l-49.8-68.7h-34.4c0,14.8-12,26.8-26.8,26.8s-26.8-12-26.8-26.8H71.3 l-49.8,68.7l31.1,31.8l23.7-23.2v90.3H188.6z M118.2,274.7h28.7c3.9,0,7,3.1,7,7s-3.1,7-7,7h-28.7c-3.9,0-7-3.1-7-7 S114.3,274.7,118.2,274.7z"></path> </g> </g></svg>