<svg xmlns="http://www.w3.org/2000/svg" width="52" height="50" viewBox="0 0 52 50" fill="none"><g clip-path="url(#clip0_305_70)"><path fill-rule="evenodd" clip-rule="evenodd" d="M32.6851 20.1426C31.6843 20.1264 30.8761 19.3218 30.8581 18.3209C30.7969 12.008 25.6324 6.94075 19.3195 7.00015C13.0066 7.05955 7.94111 12.2276 8.00052 18.5387V41.1821C8.00232 42.1847 8.81416 42.9984 9.81861 43.0002H32.4619C38.7731 43.0614 43.9411 37.9959 44.0023 31.683C44.0635 25.3701 38.9963 20.2038 32.6851 20.1426Z" fill="white"></path><path fill-rule="evenodd" clip-rule="evenodd" d="M28.9256 31.429C28.8572 32.0789 28.6826 32.2355 28.0345 32.2355H23.1617V32.6207C23.1617 33.9006 23.8925 34.4064 25.6692 34.4064C26.4361 34.4046 27.1993 34.3092 27.9445 34.1256C28.5044 33.9852 28.6754 34.1256 28.6754 34.7394V34.968C28.6754 35.5458 28.5674 35.6665 27.9445 35.8249C27.2029 36.0211 26.4361 36.1165 25.6692 36.1075C22.7261 36.1075 21.3598 35.0022 21.3598 32.3579V30.8332C21.3598 28.2951 22.6559 27.035 25.257 27.035C27.6925 27.035 28.9706 28.2771 28.9706 30.6586C28.9706 30.9214 28.9544 31.168 28.9346 31.429H28.9256ZM15.5815 27.0368C14.8507 27.0368 13.8768 27.152 13.3638 27.3806V24.4537C13.3638 23.8219 13.2072 23.6671 12.5772 23.6671H12.3648C11.7365 23.6671 11.5781 23.8237 11.5781 24.4537V32.3669C11.5781 34.8744 13.0668 36.1165 15.5707 36.1165C18.2511 36.1165 19.5813 34.8978 19.5813 32.3669V30.8638C19.5741 28.3149 18.0188 27.0368 15.5815 27.0368ZM17.774 32.3237C17.774 33.7854 17.3186 34.41 15.5815 34.41C13.8444 34.41 13.3566 33.7782 13.3566 32.3237V30.8188C13.3566 29.3571 13.8444 28.7163 15.5491 28.7163H15.5815C17.2862 28.7163 17.774 29.3481 17.774 30.8188V32.3237ZM32.5546 35.319C32.5546 35.9509 32.3962 36.1057 31.7643 36.1057H31.5393C30.9039 36.1057 30.7473 35.9491 30.7473 35.319V30.4318C30.7473 28.1727 32.0271 27.035 34.5653 27.035C37.2258 27.035 38.3653 28.1727 38.3653 30.4318V35.319C38.3653 35.9509 38.2087 36.1057 37.5786 36.1057H37.35C36.7182 36.1057 36.5634 35.9491 36.5634 35.319V30.4318C36.5634 29.2401 36.1242 28.7271 34.5653 28.7271C33.0064 28.7271 32.5528 29.2509 32.5528 30.4318C32.5546 30.4318 32.5546 35.319 32.5546 35.319ZM23.1581 30.7666H27.1687V30.4498C27.1687 29.2941 26.5009 28.7181 25.1472 28.7181C23.7935 28.7181 23.1599 29.2959 23.1599 30.4498L23.1581 30.7666Z" fill="black"></path></g><defs><clipPath id="clip0_305_70"><rect width="36.0018" height="36" fill="white" transform="translate(8 7)"></rect></clipPath></defs></svg>