<svg xmlns="http://www.w3.org/2000/svg" width="40" height="38" viewBox="0 0 40 38" fill="none"><path d="M20.0004 31.0002C26.627 31.0002 31.9989 25.6276 31.9989 19.0001C31.9989 12.3726 26.627 7 20.0004 7C13.3739 7 8.00195 12.3726 8.00195 19.0001C8.00195 25.6276 13.3739 31.0002 20.0004 31.0002Z" fill="white"></path><path fill-rule="evenodd" clip-rule="evenodd" d="M29.1189 19.8487H25.4816C25.6194 20.6385 26.3725 20.9417 27.0247 20.9417C27.438 20.9417 27.8054 20.8498 28.1637 20.6846L28.0627 21.7683C27.6585 21.9336 27.1718 21.9979 26.6849 21.9979C25.0684 21.9979 23.9294 21.0519 23.9294 19.4445C23.9294 18.0484 24.9489 17.0014 26.5103 17.0014C28.2738 17.0014 29.1556 18.1219 29.1189 19.8487ZM22.5424 21.9061C22.4688 21.7315 22.3586 21.4469 22.2668 21.1621L22.0555 20.4548C21.9453 20.0784 21.7983 19.9222 21.4401 19.9222H20.8339V21.9061H19.4286V15.4215H20.8339V18.9945H20.9901L22.3218 17.0932H23.8833L22.3126 19.0771H22.3953C23.0199 19.0771 23.2036 19.4262 23.3598 19.9406L23.6262 20.8315C23.718 21.1621 23.9109 21.6305 24.0577 21.9061H22.5424ZM18.0416 20.8315C18.409 20.8315 18.7121 20.7304 18.9417 20.6202L18.8132 21.7868C18.5193 21.9336 18.1058 22.0071 17.7477 22.0071C16.2321 22.0071 15.1851 21.0244 15.1851 19.4905C15.1851 17.975 16.2138 17.0014 17.7385 17.0014C18.2987 17.0014 18.7305 17.1115 19.1713 17.3136L18.7672 18.3974C18.5559 18.2688 18.2621 18.1679 17.9497 18.1679C17.1782 18.1679 16.673 18.673 16.673 19.4905C16.673 20.2987 17.2057 20.8406 18.0416 20.8315ZM13.3204 16.4778H14.7532V15.4215H13.3204V16.4778ZM13.3204 21.9061H14.7532V17.0932H13.3204V21.9061ZM29.4223 19.3068V16.0369L30.8551 15.4583V17.185H31.8194L31.6265 18.2597H30.8367V19.3618C30.8367 20.4324 31.2425 21.1865 31.6727 21.7919C31.8863 20.8959 32 19.9612 32 18.9998C31.9999 12.3725 26.6273 7 20 7C14.6189 7 10.0652 10.5419 8.54268 15.4215H13.008L12.8335 16.7074H10.9689V21.9061H9.44415V16.7074H8.21961C8.07609 17.4496 8 18.2158 8 18.9998C8.0001 25.6273 13.3726 30.9998 20.0001 30.9998C25.6252 30.9998 30.3455 27.1292 31.6449 21.9061H30.2305C29.9825 21.4744 29.4131 20.6937 29.4223 19.3068ZM26.5562 17.9933C25.9501 17.9933 25.5643 18.3882 25.4449 18.9118H27.6034C27.5299 18.3332 27.1258 17.9933 26.5562 17.9933Z" fill="#D52B1E"></path></svg>