<svg xmlns="http://www.w3.org/2000/svg" width="41" height="44" viewBox="0 0 41 44" fill="none"><g clip-path="url(#clip0_207_141)"><path fill-rule="evenodd" clip-rule="evenodd" d="M8 37H32.8097V31.2379H8V37Z" fill="#DB9600"></path><path d="M32.8097 31.3444H8V7H32.8097V31.3444Z" fill="#54923C"></path><path d="M30.0157 29.0821H24.4852L22.5727 21.8971H23.9413C24.214 21.9229 25.2634 21.5092 25.2613 20.476C25.2577 19.5388 24.4 19.5586 24.0979 19.546H22.3915L18.6958 29.0821H13.2172L9.52148 19.0021H14.044L15.8275 24.352L17.9467 16.0045H26.0482C28.2382 16.0045 30.0157 17.8732 30.0157 20.1781C30.0157 21.7429 29.1967 23.107 27.9859 23.821L30.0157 29.0815V29.0821ZM12.7834 35.4382V32.5162C13.0385 32.4702 13.2973 32.4481 13.5565 32.4502C13.9493 32.4502 14.2349 32.5235 14.4133 32.6701C14.5917 32.8167 14.6811 33.0144 14.6815 33.2632C14.6847 33.4297 14.6319 33.5924 14.5315 33.7252C14.4254 33.862 14.28 33.9629 14.1148 34.0144C14.3286 34.098 14.4736 34.2987 14.5498 34.6165C14.6698 35.1013 14.7489 35.3752 14.7871 35.4382H14.365C14.325 35.3692 14.2591 35.1348 14.1673 34.735C14.1205 34.5272 14.0505 34.38 13.9573 34.2934C13.8641 34.2068 13.733 34.1637 13.564 34.1641H13.192V35.4382H12.7834ZM13.192 32.7982V33.8569H13.6006C13.8056 33.8569 13.9689 33.8069 14.0905 33.7069C14.1498 33.659 14.1972 33.5979 14.2288 33.5285C14.2604 33.4591 14.2754 33.3832 14.2726 33.307C14.2726 33.13 14.2141 32.9944 14.0962 32.9014C13.9783 32.8084 13.8085 32.7622 13.5862 32.7622C13.4534 32.7583 13.3207 32.7702 13.1908 32.7976L13.192 32.7982ZM16.9969 34.459H15.4546C15.4606 34.6888 15.5316 34.8648 15.6676 34.987C15.8036 35.1092 15.9801 35.1702 16.1971 35.17C16.4088 35.1744 16.6193 35.1371 16.8166 35.0602L16.8871 35.3458C16.6773 35.4398 16.4298 35.4867 16.1446 35.4865C15.8134 35.4865 15.5497 35.3884 15.3535 35.1922C15.1573 34.996 15.0592 34.7353 15.0592 34.4101C15.0592 34.0849 15.1534 33.8124 15.3418 33.5926C15.5302 33.3728 15.7831 33.2628 16.1005 33.2626C16.3937 33.2626 16.6185 33.3602 16.7749 33.5554C16.9313 33.7506 17.0097 33.9899 17.0101 34.2733C17.0115 34.3351 17.0071 34.3969 16.9969 34.4578V34.459ZM15.4591 34.1647H16.6147C16.6147 33.9815 16.5675 33.8338 16.4731 33.7216C16.3789 33.6094 16.2439 33.5536 16.0699 33.5536C15.9934 33.5513 15.9174 33.5651 15.8466 33.5941C15.7758 33.623 15.7118 33.6664 15.6589 33.7216C15.5505 33.8334 15.4839 33.9811 15.4591 34.1647ZM17.9461 35.4388H17.5372V33.6235H17.2396V33.3115H17.5396V33.2149C17.5396 32.9115 17.609 32.6766 17.7478 32.5102C17.8866 32.3438 18.0794 32.2608 18.3262 32.2612C18.4419 32.2596 18.5569 32.2806 18.6646 32.323L18.6163 32.6392C18.5355 32.6056 18.4487 32.5892 18.3613 32.5909C18.0829 32.5909 17.9438 32.7945 17.944 33.2017V33.3115H18.4669V33.6235H17.9461V35.4382V35.4388ZM20.5513 34.459H19.0096C19.0156 34.6888 19.0867 34.8648 19.2229 34.987C19.3591 35.1092 19.5354 35.1702 19.7518 35.17C19.9635 35.1744 20.174 35.1371 20.3713 35.0602L20.4415 35.3458C20.2321 35.4398 19.9846 35.4867 19.699 35.4865C19.3678 35.4865 19.1042 35.3884 18.9082 35.1922C18.7122 34.996 18.614 34.7353 18.6136 34.4101C18.6136 34.0849 18.7079 33.8124 18.8965 33.5926C19.0851 33.3728 19.3379 33.2628 19.6549 33.2626C19.9479 33.2626 20.1728 33.3602 20.3296 33.5554C20.4864 33.7506 20.5647 33.9899 20.5645 34.2733C20.5661 34.3351 20.5616 34.3969 20.5513 34.4578V34.459ZM19.0135 34.1647H20.1691C20.1691 33.9815 20.122 33.8338 20.0278 33.7216C19.9336 33.6094 19.7991 33.5534 19.6243 33.5536C19.5479 33.5513 19.4719 33.5651 19.4011 33.594C19.3304 33.623 19.2665 33.6664 19.2136 33.7216C19.105 33.8334 19.0383 33.9811 19.0135 34.1647ZM21.4651 35.4388H21.0568V33.3115H21.4651V35.4382V35.4388ZM21.5224 32.6662C21.5234 32.7009 21.5173 32.7355 21.5043 32.7677C21.4914 32.7999 21.4719 32.8291 21.4471 32.8534C21.4224 32.8777 21.3929 32.8967 21.3604 32.9091C21.328 32.9215 21.2934 32.927 21.2587 32.9254C21.2241 32.9266 21.1895 32.9206 21.1574 32.9077C21.1252 32.8949 21.096 32.8755 21.0718 32.8507C21.048 32.8264 21.0294 32.7975 21.017 32.7658C21.0045 32.7341 20.9986 32.7002 20.9995 32.6662C20.999 32.6328 21.0053 32.5996 21.018 32.5687C21.0306 32.5377 21.0495 32.5097 21.0733 32.4862C21.0983 32.4617 21.128 32.4425 21.1607 32.43C21.1933 32.4174 21.2282 32.4116 21.2632 32.413C21.2975 32.4119 21.3318 32.4178 21.3638 32.4304C21.3957 32.443 21.4248 32.462 21.4492 32.4862C21.473 32.5097 21.4917 32.5377 21.5043 32.5687C21.5169 32.5996 21.523 32.6328 21.5224 32.6662ZM23.6269 35.0521L23.7016 35.3596C23.5131 35.4415 23.3097 35.4834 23.1043 35.4826L22.9996 35.6536C23.0835 35.6624 23.1622 35.699 23.2231 35.7574C23.25 35.7831 23.2713 35.814 23.2858 35.8483C23.3003 35.8826 23.3077 35.9194 23.3074 35.9566C23.31 36.0079 23.3 36.0591 23.2781 36.1055C23.2562 36.152 23.2232 36.1924 23.182 36.223C23.0986 36.2854 22.9836 36.3167 22.837 36.3169C22.7305 36.3197 22.6255 36.2923 22.534 36.2377L22.5997 36.0445C22.6711 36.0883 22.7533 36.1111 22.837 36.1105C22.966 36.1105 23.0305 36.065 23.0305 35.974C23.0305 35.874 22.9148 35.814 22.6834 35.794L22.867 35.47C22.5826 35.432 22.3599 35.3148 22.1989 35.1184C22.0379 34.922 21.9574 34.682 21.9574 34.3984C21.9574 34.0658 22.0665 33.7936 22.2847 33.5818C22.5029 33.37 22.7892 33.2643 23.1436 33.2647C23.3362 33.2608 23.5272 33.3013 23.7016 33.3832L23.614 33.6952C23.468 33.6225 23.3066 33.5863 23.1436 33.5899C22.9108 33.5899 22.7246 33.6633 22.585 33.8101C22.4454 33.9569 22.3754 34.1456 22.375 34.3762C22.375 34.6104 22.4461 34.7994 22.5883 34.9432C22.7305 35.087 22.9128 35.1588 23.1352 35.1586C23.3048 35.1589 23.4726 35.1229 23.6272 35.053L23.6269 35.0521ZM25.7185 34.1521V34.93C25.7155 35.1007 25.7272 35.2713 25.7536 35.44H25.3801L25.3318 35.1673C25.1718 35.3813 24.9477 35.4883 24.6595 35.4883C24.4575 35.4883 24.2957 35.4283 24.1741 35.3083C24.1154 35.253 24.0689 35.186 24.0375 35.1118C24.0061 35.0375 23.9905 34.9575 23.9917 34.8769C23.9917 34.6193 24.1037 34.4223 24.3277 34.2859C24.5517 34.1495 24.879 34.081 25.3096 34.0804V34.0408C25.3096 33.8908 25.2685 33.7708 25.1857 33.688C25.1029 33.6052 24.9799 33.562 24.8173 33.562C24.6123 33.5587 24.4108 33.6152 24.2374 33.7246L24.1453 33.4564C24.3501 33.3278 24.5946 33.2634 24.8788 33.2632C25.1558 33.2632 25.3651 33.3393 25.5067 33.4915C25.6483 33.6437 25.7183 33.8637 25.7167 34.1515L25.7185 34.1521ZM25.3186 34.7131V34.3615C24.976 34.3615 24.738 34.4025 24.6046 34.4845C24.4712 34.5665 24.4046 34.6793 24.4048 34.8229C24.4048 34.9357 24.4384 35.0236 24.505 35.0875C24.5406 35.1201 24.5822 35.1453 24.6276 35.1617C24.673 35.1781 24.7211 35.1854 24.7693 35.1832C24.913 35.187 25.0526 35.1353 25.1593 35.0389C25.2645 34.9433 25.3172 34.8347 25.3174 34.7131H25.3186ZM24.5716 32.9689H24.3652C24.3652 32.8289 24.3906 32.7189 24.4414 32.6389C24.463 32.6015 24.4942 32.5706 24.5318 32.5495C24.5695 32.5284 24.6121 32.5178 24.6553 32.5189C24.7209 32.5189 24.8161 32.5526 24.9409 32.62C25.0288 32.6698 25.096 32.6944 25.1428 32.6944C25.2118 32.6944 25.2499 32.6317 25.2571 32.5057H25.4596C25.4596 32.7957 25.3596 32.9407 25.1596 32.9407C25.0878 32.9407 24.9955 32.9085 24.8827 32.8441C24.7948 32.7943 24.7291 32.7694 24.685 32.7694C24.619 32.7694 24.5812 32.8351 24.5707 32.9671L24.5716 32.9689ZM28.3636 34.3528C28.3684 34.5618 28.3192 34.7684 28.2208 34.9528C28.1291 35.1209 27.99 35.2584 27.8209 35.3482C27.6503 35.4405 27.4592 35.4881 27.2653 35.4868C26.9547 35.4868 26.6983 35.3852 26.4961 35.182C26.2939 34.9788 26.1929 34.7157 26.1931 34.3927C26.1931 34.0483 26.2976 33.7739 26.5066 33.5695C26.7156 33.3651 26.9787 33.2631 27.2959 33.2635C27.6121 33.2635 27.8691 33.3648 28.0669 33.5674C28.2647 33.77 28.3636 34.0319 28.3636 34.3531V34.3528ZM26.6107 34.3792C26.6107 34.612 26.6729 34.8041 26.7973 34.9555C26.8523 35.0272 26.9232 35.0851 27.0044 35.1246C27.0856 35.1641 27.175 35.1842 27.2653 35.1832C27.3574 35.1843 27.4486 35.1644 27.5318 35.1248C27.615 35.0852 27.688 35.0271 27.7453 34.9549C27.8733 34.8025 27.9372 34.6062 27.937 34.366C27.937 34.1448 27.8782 33.9561 27.7606 33.7999C27.643 33.6437 27.4822 33.5658 27.2782 33.5662C27.0716 33.5662 26.9087 33.6434 26.7895 33.7978C26.6703 33.9522 26.6103 34.146 26.6095 34.3792H26.6107Z" fill="white"></path></g><defs><clipPath id="clip0_207_141"><rect width="24.8097" height="30" fill="white" transform="translate(8 7)"></rect></clipPath></defs></svg>