<svg xmlns="http://www.w3.org/2000/svg" width="70" height="27" viewBox="0 0 70 27" fill="none"><path d="M9.19434 0.654786C11.8286 -0.169526 14.7034 -0.233775 17.3541 0.565931C21.9568 1.88237 25.7353 5.84536 26.6416 10.5725C24.8481 10.9498 23.0436 11.2724 21.2555 11.6689C20.8126 9.91497 19.8666 8.25814 18.4121 7.15086C16.3397 5.4872 13.4362 5.01831 10.9168 5.82212C10.3645 4.09284 9.7056 2.39637 9.19434 0.654786Z" fill="#FFCA05"></path><path d="M47.7295 3.32983C48.8846 3.3435 50.0397 3.33257 51.1949 3.3353C51.1921 8.58055 51.2017 13.8244 51.1908 19.0683C52.0028 19.421 52.8285 19.7368 53.6459 20.0772C53.1634 21.1516 52.7191 22.2439 52.2488 23.3238C51.3261 22.9274 50.3924 22.5597 49.4724 22.1591C48.4704 21.6985 47.7719 20.6568 47.7418 19.5536C47.6693 18.3233 47.6912 17.0875 47.709 15.8545C47.6803 15.0807 47.6803 14.3056 47.7076 13.5319C47.683 13.0302 47.6803 12.5285 47.7076 12.0282C47.6816 11.6181 47.683 11.2066 47.7062 10.7965C47.6816 9.38436 47.6789 7.97086 47.709 6.55873C47.6926 5.48289 47.6543 4.40294 47.7295 3.32983Z" fill="white"></path><path d="M59.3901 7.24222C61.4161 6.61475 63.688 6.72412 65.5896 7.6947C67.841 8.79105 69.5074 10.981 69.9941 13.4348C68.7624 13.6754 67.5403 13.9638 66.3018 14.1648C65.971 12.2783 64.2622 10.776 62.362 10.6242C61.7496 10.5613 61.1331 10.6543 60.5507 10.8416C60.1844 9.63587 59.7346 8.45476 59.3901 7.24222Z" fill="white"></path><path d="M33.058 8.55326C35.0607 6.93471 37.8754 6.42618 40.3319 7.16983C41.7878 7.61138 43.1712 8.39742 44.1691 9.56075C45.0126 10.5218 45.5772 11.6892 46.0255 12.8758C41.1111 15.048 36.1721 17.1655 31.2659 19.3554C30.2556 17.7656 29.81 15.8176 30.067 13.9475C30.3691 11.871 31.4203 9.88336 33.058 8.55326ZM34.5945 11.8888C33.8714 12.7582 33.5994 13.9297 33.7046 15.0425C36.0272 14.0828 38.3197 13.048 40.6368 12.0706C40.809 11.9981 40.9785 11.9134 41.1316 11.8027C40.4727 11.1137 39.6744 10.4931 38.7079 10.3386C37.2001 10.1253 35.5774 10.7186 34.5945 11.8888Z" fill="white"></path><path d="M54.0516 17.2228C53.2342 14.2823 54.2102 10.888 56.5669 8.92224C57.3639 9.87779 58.2388 10.7663 59.0303 11.7274C57.491 13.0233 57.0659 15.4005 58.0283 17.1626C58.2743 17.6493 58.638 18.0635 59.0276 18.4422C58.1951 19.3581 57.3666 20.2767 56.5615 21.2158C55.3107 20.2206 54.4754 18.7511 54.0516 17.2228Z" fill="white"></path><path d="M66.2966 16.0187C67.5433 16.1786 68.7654 16.5053 69.9999 16.7432C69.5337 18.9783 68.1106 20.996 66.1421 22.158C64.1271 23.3732 61.579 23.6439 59.3535 22.877C59.7513 21.6918 60.1546 20.5093 60.5415 19.32C61.5448 19.6126 62.6549 19.6153 63.6282 19.2134C64.9692 18.6748 66.0205 17.4431 66.2966 16.0187Z" fill="white"></path><path d="M38.801 19.6398C40.019 19.3869 41.2015 18.7184 41.8686 17.6412C42.0121 17.6932 42.1584 17.7478 42.2842 17.8394C43.1659 18.4518 44.0722 19.0315 44.9512 19.648C43.6717 21.5905 41.5146 22.87 39.2289 23.2159C37.2727 23.5276 35.2495 22.9548 33.6187 21.8639C34.2625 20.8523 34.8954 19.8216 35.6309 18.8743C36.4744 19.6412 37.7033 19.8941 38.801 19.6398Z" fill="white"></path><path d="M1.50348 7.24648C2.27721 5.7578 3.34896 4.43589 4.61071 3.33408C5.85333 4.68469 7.05768 6.07084 8.31943 7.40369C7.44728 8.26901 6.6503 9.2437 6.20056 10.4016C5.29149 12.5915 5.4733 15.2039 6.69268 17.2394C7.11919 17.994 7.71521 18.6296 8.32217 19.2421C7.14653 20.4861 6.02148 21.7752 4.86635 23.0369C4.76382 23.1463 4.59021 23.3445 4.44667 23.1654C2.30319 21.2707 0.792632 18.6638 0.251292 15.8519C-0.33926 12.9524 0.12416 9.86022 1.50348 7.24648Z" fill="#00A4DF"></path><path d="M21.2001 15.0505C21.7072 15.0533 22.1966 15.1954 22.6915 15.2884C24.0107 15.5495 25.3271 15.8256 26.6476 16.0854C26.0106 19.3758 23.9792 22.3408 21.2301 24.2355C17.7757 26.6647 13.1798 27.3018 9.17578 25.9881C9.73079 24.2574 10.3514 22.5473 10.9228 20.8221C13.1251 21.5288 15.624 21.2732 17.6021 20.0607C19.4175 18.978 20.7804 17.1298 21.2001 15.0505Z" fill="#EE4123"></path></svg>