<svg xmlns="http://www.w3.org/2000/svg" width="33" height="30" viewBox="0 0 33 30" fill="none"><path d="M5.9637 4.97658C6.47612 4.45637 7.16934 4.11815 7.89487 4.03593C8.12834 4.00514 8.364 4.01566 8.59871 4.0141C9.47462 4.01371 10.3509 4.01487 11.227 4.01332C11.2253 4.34804 11.2262 4.68238 11.2266 5.0171C10.2341 5.01594 9.24156 5.01632 8.24947 5.01672C7.67162 5.01944 7.10192 5.26025 6.69161 5.66629C6.26687 6.08167 6.01943 6.66851 6.01593 7.26237C6.01865 8.24868 6.0167 9.23487 6.0171 10.2211C5.68354 10.2187 5.35037 10.2211 5.01682 10.2204C5.01448 9.40366 5.0211 8.58762 5.0172 7.77127C5.02227 7.41823 4.99578 7.06168 5.06241 6.71255C5.17424 6.05946 5.49416 5.44418 5.9637 4.97658Z" fill="white"></path><path d="M20.7847 4.01332C21.8005 4.01487 22.8164 4.0141 23.8322 4.01449C24.5994 4.03436 25.3546 4.33831 25.922 4.855C26.5992 5.45899 26.9998 6.356 26.9994 7.26315C26.9982 8.24896 26.9986 9.23529 26.999 10.2211C26.6647 10.2204 26.3299 10.2187 25.9952 10.2219C25.9933 9.23487 25.9984 8.24786 25.9948 7.2608C25.9948 6.62098 25.7022 5.98971 25.2182 5.57199C24.8184 5.22089 24.2912 5.01905 23.7589 5.01672C22.7676 5.01594 21.7764 5.01632 20.7847 5.01632C20.7854 4.68198 20.7849 4.34766 20.7847 4.01332Z" fill="white"></path><path d="M8.09766 7.1143C9.67493 7.11664 11.2528 7.11274 12.8304 7.11624C12.8328 8.69323 12.8293 10.2698 12.8325 11.8468C11.2539 11.8468 9.67575 11.8453 8.09766 11.8476C8.09917 10.2698 8.09875 8.69213 8.09766 7.1143ZM8.88787 7.90376C8.88787 8.95471 8.88705 10.0056 8.88787 11.057C9.93916 11.0581 10.99 11.0554 12.0415 11.0577C12.0415 10.0064 12.0421 8.95512 12.041 7.90376C10.9898 7.90376 9.93875 7.90298 8.88787 7.90376Z" fill="white"></path><path d="M14.4092 7.11469C14.9356 7.11469 15.4618 7.11547 15.9882 7.1143C15.9871 7.64035 15.9882 8.166 15.9877 8.69171C16.2509 8.69048 16.5135 8.69213 16.7765 8.69048C16.7741 8.9532 16.7758 9.21578 16.776 9.47809C17.3022 9.47836 17.8286 9.47809 18.355 9.47809C18.3547 9.74218 18.355 10.0064 18.3547 10.2706C18.0924 10.2702 17.8302 10.2713 17.5679 10.2702C17.5582 10.7858 17.5827 11.3039 17.5562 11.8184C17.5138 11.8542 17.4568 11.8441 17.4059 11.8472C17.2492 11.8472 17.0925 11.846 16.9355 11.8476C16.884 11.8449 16.8271 11.8542 16.7855 11.8171C16.7597 11.5654 16.7819 11.3107 16.7745 11.0577C16.5119 11.0589 16.2488 11.057 15.9862 11.0589C15.9875 10.7951 15.9862 10.5317 15.9866 10.2679C16.2488 10.2706 16.5111 10.2694 16.773 10.271C16.7758 10.0072 16.7737 9.74341 16.7737 9.4796C16.2617 9.47877 15.7497 9.4807 15.238 9.47877C15.2295 9.47493 15.2128 9.46669 15.2041 9.46243C15.1882 8.94455 15.2026 8.42323 15.1975 7.90376C14.9365 7.89013 14.6648 7.93221 14.4112 7.88077C14.4058 7.62554 14.4135 7.36992 14.4092 7.11469Z" fill="white"></path><path d="M17.5657 7.11506C17.8283 7.11428 18.0913 7.11584 18.3544 7.11389C18.3559 7.64033 18.3532 8.16684 18.3555 8.69324C18.0917 8.68857 17.8283 8.69393 17.5645 8.692C17.5672 8.16643 17.5653 7.64072 17.5657 7.11506Z" fill="white"></path><path d="M19.1424 7.11356C20.7213 7.11939 22.2999 7.11199 23.8784 7.11511C23.878 8.69255 23.8776 10.2698 23.8789 11.8468C22.2999 11.8468 20.721 11.8453 19.1421 11.8476C19.1436 10.2694 19.1421 8.69131 19.1424 7.11356ZM19.9315 7.90418C19.9315 8.95513 19.9315 10.006 19.9319 11.057C20.9832 11.0574 22.0345 11.0566 23.0859 11.057C23.0859 10.006 23.0859 8.95472 23.0859 7.9034C22.0345 7.9038 20.9828 7.90302 19.9315 7.90418Z" fill="white"></path><path d="M13.6182 7.90257C13.864 7.90647 14.1104 7.89557 14.3562 7.90686C14.367 7.91271 14.3889 7.92479 14.4003 7.93063C14.4264 8.44494 14.4037 8.96324 14.4111 9.4792C14.6667 9.48538 14.9243 9.46313 15.178 9.49005C15.2111 9.54773 15.1952 9.61708 15.2002 9.68067C15.1982 10.14 15.199 10.5998 15.1994 11.0592C14.6726 11.0569 14.1458 11.0581 13.619 11.0585C13.619 10.7954 13.6186 10.5324 13.619 10.2694C13.8827 10.2698 14.1462 10.2694 14.4099 10.2694C14.4103 10.006 14.4124 9.7426 14.4111 9.4792C14.1474 9.47879 13.8824 9.47961 13.619 9.47961C13.6182 8.9539 13.6197 8.42819 13.6182 7.90257Z" fill="white"></path><path d="M9.67578 8.69049C10.2026 8.69173 10.7294 8.6909 11.2558 8.69131C11.2532 9.21771 11.2555 9.74411 11.2547 10.2706C10.7286 10.2706 10.2022 10.2709 9.67619 10.2706C9.67537 9.74411 9.67619 9.2173 9.67578 8.69049Z" fill="white"></path><path d="M20.7212 8.6909C21.2468 8.69132 21.7729 8.692 22.2989 8.69049C22.2981 9.2173 22.2985 9.74411 22.2985 10.2709C21.7729 10.2702 21.2472 10.2713 20.7215 10.2702C20.7215 9.7437 20.7231 9.2173 20.7212 8.6909Z" fill="white"></path><path d="M14.409 11.8453C14.6724 11.8453 14.9361 11.846 15.1996 11.8449C15.1848 12.1067 15.2268 12.3779 15.1769 12.6336C14.9373 12.6417 14.6961 12.6226 14.4565 12.643C14.4377 12.625 14.4186 12.6075 14.3999 12.5895C14.4202 12.3421 14.4069 12.0935 14.409 11.8453Z" fill="white"></path><path d="M15.9854 11.8453C16.2469 11.8597 16.5192 11.8161 16.7737 11.8687C16.7675 12.1181 16.7943 12.3756 16.7601 12.6203C16.5142 12.6523 16.2574 12.6273 16.0081 12.6336C15.9581 12.3779 16.0007 12.1068 15.9854 11.8453Z" fill="white"></path><path d="M17.5676 11.8678C17.8225 11.8167 18.0936 11.8596 18.3555 11.8445C18.3547 12.1079 18.3547 12.3709 18.3555 12.6343C18.6185 12.632 18.8817 12.6339 19.1451 12.6328C19.143 12.897 19.1451 13.1615 19.1438 13.4261C18.354 13.4245 17.5645 13.4257 16.7747 13.4253C16.7825 13.1662 16.7579 12.9043 16.7875 12.6472C17.0443 12.6152 17.307 12.6417 17.5661 12.6332C17.5685 12.3779 17.5617 12.1227 17.5676 11.8678Z" fill="white"></path><path d="M8.88148 13.3969C8.89247 13.1424 8.88505 12.8875 8.88656 12.6331C9.67609 12.6331 10.4655 12.6335 11.255 12.6326C11.2546 12.8965 11.2542 13.1603 11.2554 13.4241C11.5172 13.4249 11.7791 13.4241 12.0414 13.4245C12.0418 13.1607 12.0421 12.8969 12.0414 12.6326C12.3048 12.6331 12.5686 12.6339 12.8324 12.6326C12.8312 12.8969 12.8312 13.1607 12.8324 13.4245C13.0787 13.4183 13.3257 13.437 13.5716 13.4156C13.5911 13.4347 13.611 13.4538 13.6307 13.4733C13.6063 13.718 13.6242 13.9642 13.6195 14.2101C13.8833 14.2096 14.1475 14.2105 14.4113 14.2092C14.4101 14.4728 14.4113 14.7362 14.4113 14.9996C14.1475 15 13.8833 14.9996 13.6195 14.9996C13.6199 15.2618 13.6187 15.5241 13.6203 15.7862C13.8837 15.7866 14.1475 15.7862 14.4109 15.7866C14.4109 16.0509 14.4116 16.3151 14.4105 16.5792C14.1853 16.5808 13.9605 16.5804 13.7353 16.5719C13.6928 16.5633 13.6214 16.5692 13.618 16.6264C13.6191 16.8727 13.6195 17.1185 13.6203 17.3649C13.8837 17.3645 14.1475 17.3652 14.4109 17.3641C14.4113 17.6275 14.4105 17.8905 14.4113 18.1539C14.1467 18.1534 13.8825 18.1539 13.6184 18.1539C13.6187 17.8909 13.6184 17.6283 13.6184 17.3652C13.3557 17.3668 13.0931 17.3649 12.8304 17.3664C12.8331 17.1104 12.825 16.8544 12.835 16.5983C12.5763 16.5414 12.3059 16.5983 12.0425 16.5792C12.0406 16.3158 12.0429 16.052 12.041 15.7886C11.7787 15.7847 11.5169 15.7898 11.255 15.7855C11.255 16.3124 11.2542 16.8392 11.2554 17.3656C10.4659 17.366 9.67609 17.3652 8.88656 17.366C8.88739 17.1017 8.88615 16.8377 8.8878 16.5734C9.41186 16.5781 9.93634 16.5622 10.4604 16.5824C10.4663 16.3174 10.4612 16.0524 10.4631 15.7875C9.67444 15.7879 8.88615 15.7871 8.09785 15.7883C8.09868 15.5247 8.10019 15.2613 8.09717 14.9984C8.36016 14.9992 8.62357 14.9979 8.88697 14.9988C8.88546 14.7392 8.89082 14.4794 8.88313 14.2198C9.14612 14.1937 9.4131 14.219 9.67801 14.2092C9.67609 14.4728 9.67678 14.7358 9.67719 14.9992C9.93908 14.9979 10.201 14.9983 10.4627 14.9988C10.4636 14.4739 10.4636 13.9494 10.4627 13.4245C9.98234 13.426 9.50181 13.4253 9.02183 13.4257C8.97226 13.4304 8.92666 13.4128 8.88148 13.3969ZM11.255 14.2109C11.2546 14.4735 11.2542 14.7362 11.2554 14.9988C11.518 14.9979 11.7806 15.0003 12.0433 14.9988C12.0395 15.2613 12.0437 15.5245 12.0433 15.7875C12.2959 15.7949 12.5519 15.7684 12.8023 15.8011C12.8085 15.812 12.821 15.8342 12.8273 15.8456C12.8363 16.0812 12.8343 16.3181 12.8257 16.5543C12.9064 16.591 12.9968 16.5769 13.0825 16.5769C13.2524 16.5703 13.4223 16.5745 13.5926 16.5722C13.6 16.5582 13.6152 16.5302 13.6226 16.5162C13.6137 16.2734 13.6207 16.0305 13.6187 15.7879C13.3631 15.7871 13.1075 15.7879 12.8522 15.789C12.8479 15.7792 12.839 15.7595 12.8343 15.7497C12.8254 15.2365 12.8324 14.7224 12.8308 14.2092C12.3055 14.2132 11.7803 14.2105 11.255 14.2109Z" fill="white"></path><path d="M13.6179 12.6328C13.8443 12.6343 14.0702 12.6331 14.2967 12.6316C14.3407 12.6218 14.4081 12.6366 14.4121 12.6916C14.4117 12.9363 14.4104 13.181 14.4108 13.4258C14.1852 13.4258 13.96 13.426 13.7343 13.4269C13.6908 13.4347 13.6214 13.4264 13.6175 13.37C13.6164 13.1242 13.6191 12.8782 13.6179 12.6328Z" fill="white"></path><path d="M15.2277 12.6451C15.4693 12.6245 15.717 12.625 15.9587 12.6451C15.9649 12.6561 15.9774 12.6776 15.9836 12.6884C15.9961 12.9335 15.9844 13.1798 15.9878 13.4253C15.7248 13.4253 15.4618 13.4253 15.1989 13.4258C15.2015 13.1802 15.1902 12.934 15.2031 12.6888C15.2093 12.678 15.2218 12.6561 15.2277 12.6451Z" fill="white"></path><path d="M19.9311 12.6332C20.1952 12.6336 20.4594 12.6324 20.724 12.6336C20.7236 12.8978 20.724 13.1619 20.724 13.4262C20.4594 13.4253 20.1952 13.4246 19.9307 13.4262C19.9307 13.1619 19.9311 12.8978 19.9311 12.6332Z" fill="white"></path><path d="M21.5107 13.4257C21.5095 13.1611 21.5111 12.8966 21.5107 12.6324C21.7737 12.6328 22.0364 12.6332 22.2994 12.6332C22.299 12.8973 22.2994 13.1615 22.299 13.4257C22.0364 13.4249 21.7733 13.4249 21.5107 13.4257Z" fill="white"></path><path d="M8.09785 13.4238C8.3625 13.4351 8.63057 13.4035 8.89288 13.4393C8.88381 13.6938 8.88546 13.9487 8.89164 14.2031C8.62714 14.2175 8.36208 14.209 8.09717 14.2113C8.0995 13.9487 8.09827 13.6864 8.09785 13.4238Z" fill="white"></path><path d="M17.0169 14.5453C17.6162 14.246 18.3097 14.1455 18.9707 14.2511C19.6443 14.3587 20.2799 14.688 20.7588 15.173C21.2701 15.6824 21.6056 16.3658 21.6879 17.0832C21.7856 17.8707 21.5744 18.6851 21.1208 19.3347C22.0054 20.2161 22.8872 21.0999 23.7709 21.9822C23.8723 22.069 23.9183 22.2265 23.8396 22.3434C23.7383 22.4757 23.607 22.5818 23.4939 22.7041C23.414 22.7794 23.3366 22.8823 23.2161 22.8838C23.1207 22.895 23.0357 22.8433 22.9733 22.7766C22.0923 21.8921 21.205 21.0134 20.3259 20.1269C19.7815 20.506 19.1219 20.7212 18.4571 20.7193C17.8298 20.7216 17.2039 20.5333 16.6799 20.1885C16.0657 19.7895 15.5907 19.1788 15.362 18.4825C15.0939 17.6857 15.1566 16.7836 15.5311 16.0307C15.8452 15.3904 16.3766 14.8594 17.0169 14.5453ZM18.0047 15.1987C17.2194 15.3472 16.5403 15.9376 16.2769 16.6913C16.0836 17.2266 16.1 17.8342 16.3236 18.3578C16.5493 18.8975 16.9876 19.344 17.5235 19.5783C18.0467 19.8129 18.659 19.8377 19.201 19.6507C19.7711 19.4574 20.2562 19.0303 20.5231 18.491C20.7706 18.0009 20.8321 17.4202 20.6922 16.8896C20.5609 16.3772 20.2468 15.9138 19.8197 15.6025C19.3062 15.2233 18.6308 15.0683 18.0047 15.1987Z" fill="white"></path><path d="M8.09717 18.1532C9.67568 18.1521 11.2538 18.154 12.8324 18.1521C12.8308 19.7298 12.8324 21.3076 12.8312 22.8853C11.2538 22.8829 9.67609 22.8846 8.09827 22.8846C8.09758 21.3072 8.10184 19.7302 8.09717 18.1532ZM8.88848 22.0963C9.9395 22.0955 10.9904 22.095 12.0418 22.0963C12.0437 21.0449 12.041 19.9936 12.0418 18.9423C10.9908 18.9415 9.9395 18.9423 8.88821 18.9419C8.8878 19.9932 8.88739 21.0446 8.88848 22.0963Z" fill="white"></path><path d="M13.619 18.9406C13.8831 18.9419 14.1473 18.94 14.4115 18.9423C14.4107 19.2045 14.412 19.4672 14.412 19.7298C14.1473 19.7263 13.8827 19.7266 13.6182 19.7294C13.619 19.4664 13.619 19.2038 13.619 18.9406Z" fill="white"></path><path d="M9.67578 19.7278C10.2022 19.7287 10.7283 19.7278 11.2547 19.7282C11.2551 20.2551 11.2543 20.7816 11.2551 21.3084C10.7286 21.3084 10.2022 21.3072 9.67578 21.3088C9.67619 20.7819 9.67578 20.2551 9.67578 19.7278Z" fill="white"></path><path d="M5.01645 19.7773C5.35 19.7769 5.68316 19.7784 6.01672 19.7765C6.01633 20.7745 6.01595 21.7723 6.0175 22.7707C6.02607 23.5692 6.49913 24.3387 7.20443 24.7121C7.53447 24.892 7.91089 24.9848 8.28649 24.9829C9.2665 24.9825 10.2461 24.9829 11.2258 24.9825C11.2263 25.3168 11.2246 25.6514 11.2265 25.9863C10.2337 25.9846 9.24041 25.9858 8.24722 25.9858C7.41562 25.9808 6.59227 25.6433 5.99996 25.0589C5.32701 24.4139 4.96267 23.4702 5.01645 22.5404C5.02035 21.6196 5.0145 20.6985 5.01645 19.7773Z" fill="white"></path><path d="M25.9956 19.7765C26.3303 19.7784 26.6654 19.7773 27.0002 19.7769C26.9975 20.7751 27.0002 21.774 26.999 22.7723C26.9905 23.5353 26.7021 24.2907 26.1975 24.8636C25.6033 25.5533 24.7086 25.9746 23.7971 25.9846C22.7929 25.987 21.7887 25.9839 20.7847 25.9867C20.7854 25.6519 20.7858 25.3172 20.7849 24.9829C21.7751 24.9821 22.7653 24.9832 23.7551 24.9825C24.3341 24.9813 24.9073 24.7424 25.318 24.3348C25.7447 23.9198 25.9956 23.3302 25.9956 22.7349C25.9965 21.7486 25.9961 20.7624 25.9956 19.7765Z" fill="white"></path><path d="M13.619 20.5216C13.8831 20.5185 14.1473 20.5197 14.4116 20.5189C14.4107 20.7823 14.4112 21.0453 14.4116 21.3088C14.1469 21.3076 13.8831 21.3076 13.619 21.3088C13.6193 21.0461 13.617 20.7839 13.619 20.5216Z" fill="white"></path></svg>