<svg xmlns="http://www.w3.org/2000/svg" width="66" height="34" viewBox="0 0 66 34" fill="none"><path d="M13.5382 9H12.9506C12.2296 9 11.6421 9.5252 11.6421 10.2908V11.0118C11.6421 11.7773 12.2296 12.3026 12.9506 12.3026H13.5382C14.2815 12.3026 14.8467 11.7773 14.8467 11.0118V10.2908C14.8467 9.52075 14.277 9 13.5382 9Z" fill="#FF7A00"></path><path d="M23.3884 13.6067C21.5546 13.6067 20.3974 14.568 19.8277 15.6363L19.7386 13.8871H17.0103V25.1567H19.8499V18.9121C19.8499 17.0338 20.8558 15.9434 22.3602 15.9434C23.8646 15.9434 24.4788 16.9048 24.4788 18.6317V25.1611H27.2962V17.9106C27.2962 15.3736 26.1835 13.6067 23.3884 13.6067Z" fill="#FF7A00"></path><path d="M10 16.206H11.8783V25.1611H14.7179V13.8915H10V16.206Z" fill="#FF7A00"></path><path d="M41.9302 13.6067C38.3917 13.6067 36.1841 15.9434 36.1841 19.3705V19.6554C36.1841 23.1271 38.3472 25.4415 41.9302 25.4415C44.8366 25.4415 46.7772 23.9549 47.3246 21.596H44.5072C44.1779 22.5574 43.3723 23.2339 41.9302 23.2339C40.2255 23.2339 39.2418 22.2057 39.0905 20.1984H47.3914C47.5872 16.295 45.709 13.6067 41.9302 13.6067ZM39.1573 18.2578C39.4199 16.6199 40.3368 15.8098 41.9079 15.8098C43.5013 15.8098 44.3336 16.7267 44.485 18.2578H39.1573Z" fill="#FF7A00"></path><path d="M32.1209 21.7073V16.206H35.0896V13.8915H32.1209V10.0682H29.2812V21.9921C29.2812 24.2621 30.5275 25.4415 33.1491 25.4415C33.8033 25.4415 34.6134 25.3303 35.1386 25.1567V22.949C34.8315 23.0603 34.3107 23.1894 33.7855 23.1894C32.5393 23.1938 32.1209 22.7354 32.1209 21.7073Z" fill="#FF7A00"></path><path d="M55.3414 13.6957C53.7034 13.6957 52.5462 14.6571 51.9988 16.0769L51.932 13.8915H49.2036V25.1611H52.0433V19.5708C52.0433 17.4077 53.0269 16.206 55.19 16.206C55.4749 16.206 55.7998 16.2282 56.0001 16.2505V13.7624C55.8221 13.7179 55.5372 13.6957 55.3414 13.6957Z" fill="#FF7A00"></path></svg>