<svg xmlns="http://www.w3.org/2000/svg" width="66" height="34" viewBox="0 0 66 34" fill="none"><g clip-path="url(#clip0_207_203)"><path d="M22.1375 9.78937C23.2127 8.65982 24.6389 8 26.3144 8C29.5784 8 31.7425 10.3832 32.1566 13.9533C32.2908 15.1127 32.2896 16.7473 32.2882 18.6406C32.288 18.8347 32.288 19.0317 32.288 19.231V26.3235H27.7993V21.0777C27.7993 21.0777 27.7901 16.588 27.7627 15.7489C27.6422 12.0944 25.4787 9.79803 22.1371 9.79556C21.1289 10.8607 20.5887 12.1631 20.509 14.1544C20.4981 14.4322 20.5008 15.4166 20.5045 16.7141C20.5064 17.3864 20.5085 18.1427 20.509 18.9283C20.5124 22.3476 20.509 26.3243 20.509 26.3243H16.0203V18.251C16.0203 17.9744 16.0153 17.6954 16.0102 17.4153C16 16.8519 15.9898 16.2842 16.0203 15.722C16.071 14.7848 16.2332 13.8635 16.6705 13.0077C17.6715 11.047 19.7225 9.78457 21.9091 9.78457C21.9855 9.78457 22.0619 9.78645 22.1375 9.78937Z" fill="#820AD1"></path><path d="M49.9796 19.0366C50.0101 18.4745 49.9999 17.9067 49.9897 17.3433C49.9846 17.0632 49.9796 16.7843 49.9796 16.5076V8.43431H45.491C45.491 8.43431 45.4876 12.411 45.491 15.8303C45.4915 16.6158 45.4936 17.3721 45.4955 18.0444C45.4991 19.3419 45.5019 20.3264 45.491 20.6042C45.4113 22.5956 44.871 23.8979 43.8629 24.9631C40.5213 24.9607 38.3579 22.6642 38.2373 19.0097C38.2099 18.1706 38.1983 16.0884 38.1983 13.6767V8.43088L33.7129 8.43498V15.5275C33.7129 15.7269 33.7127 15.9237 33.7127 16.1179C33.7113 18.0112 33.7101 19.6457 33.8443 20.8052C34.2575 24.3754 36.4216 26.7585 39.6857 26.7585C41.3612 26.7585 42.7874 26.0987 43.8626 24.9691C43.9381 24.9721 44.0145 24.9738 44.0909 24.9738C46.2774 24.9738 48.3285 23.7114 49.3295 21.7507C49.7668 20.8948 49.9289 19.9736 49.9796 19.0364L49.9796 19.0366Z" fill="#820AD1"></path></g><defs><clipPath id="clip0_207_203"><rect width="34" height="18.7585" fill="white" transform="translate(16 8)"></rect></clipPath></defs></svg>