<svg xmlns="http://www.w3.org/2000/svg" width="61" height="32" viewBox="0 0 61 32" fill="none"><mask id="mask0_305_109" style="mask-type:luminance" maskUnits="userSpaceOnUse" x="8" y="6" width="45" height="20"><path d="M52.5442 6H8V26H52.5442V6Z" fill="white"></path></mask><g mask="url(#mask0_305_109)"><mask id="mask1_305_109" style="mask-type:luminance" maskUnits="userSpaceOnUse" x="4" y="2" width="53" height="26"><path d="M4.45801 2.45523H56.0921V27.0278H4.45801V2.45523Z" fill="white"></path></mask><g mask="url(#mask1_305_109)"><path d="M10.2523 20.3592H9.28264V17.8511H10.2523C11.0074 17.8511 11.5203 18.4107 11.5203 19.1004C11.5203 19.7999 11.0074 20.3592 10.2523 20.3592ZM10.3455 16.6766H8.01465V23.4824H9.28264V21.5339H10.3361C11.7532 21.5339 12.7975 20.4525 12.7975 19.1004C12.7975 17.7581 11.7532 16.6766 10.3455 16.6766Z" fill="white"></path><path d="M16.0238 22.4385C15.0915 22.4385 14.3739 21.6927 14.3739 20.7418C14.3739 19.8002 15.0915 19.0638 16.0238 19.0638C16.956 19.0638 17.6554 19.8188 17.6554 20.7418C17.6554 21.6835 16.956 22.4385 16.0238 22.4385ZM17.5902 18.6815C17.1986 18.2153 16.5552 17.9167 15.8376 17.9167C14.4576 17.9167 13.1338 18.9518 13.1338 20.7604C13.1338 22.5413 14.5042 23.5947 15.8187 23.5947C16.5366 23.5947 17.1892 23.2777 17.5902 22.7743V23.4827H18.8488V18.0287H17.5902V18.6815Z" fill="white"></path><path d="M22.2157 21.702L20.6961 18.0288H19.3535L21.5912 23.2124L20.4442 26H21.7217L24.9755 18.0288H23.6515L22.2157 21.702Z" fill="white"></path><path d="M44.8728 11.1997H44.8378L43.3747 6.20262H41.0117V12.5029H42.5775L42.4896 7.3334H42.5245L44.0961 12.5029H46.3629V6.20262H44.7864L44.8728 11.1997Z" fill="white"></path><path d="M16.2309 6.79237L16.2664 6.7918L17.1151 12.5684H18.8253L17.6519 6.20262H14.8197L13.6396 12.5684H15.3603L16.2309 6.79237Z" fill="white"></path><path d="M24.4371 6.20262L23.6519 11.0703H23.6157L22.8316 6.20262H20.235L20.0947 12.5684H21.6881L21.7279 6.84575H21.763L22.8264 12.5684H24.4417L25.5055 6.84632L25.5407 6.84575L25.5804 12.5684H27.1728L27.0325 6.20262H24.4371Z" fill="white"></path><path d="M10.3176 12.8179C11.4695 12.8179 12.4165 12.4251 12.5678 11.3623C12.6453 10.8129 12.5884 10.4529 12.561 10.319C12.2923 8.98586 9.87708 8.58826 9.69683 7.84276C9.66653 7.71348 9.67389 7.57939 9.69003 7.50817C9.73506 7.30384 9.8734 7.08069 10.2714 7.08069C10.6444 7.08069 10.8629 7.31064 10.8629 7.65755V8.0519H12.4516V7.60346C12.4516 6.21695 11.206 6.00017 10.305 6.00017C9.17363 6.00017 8.24802 6.37511 8.07938 7.4133C8.03322 7.6972 8.02699 7.95136 8.09396 8.27194C8.37007 9.57306 10.6324 9.949 10.9603 10.7731C11.0226 10.927 11.0028 11.1244 10.9729 11.2439C10.9211 11.456 10.7769 11.6724 10.3527 11.6724C9.95468 11.6724 9.71311 11.4418 9.71311 11.0951L9.71156 10.4781H8.00447L8.00391 10.9688C8.00391 12.389 9.12124 12.8179 10.3176 12.8179Z" fill="white"></path><path d="M30.4071 7.85882C30.3762 7.73167 30.384 7.59913 30.3992 7.52833C30.4443 7.32614 30.5816 7.1051 30.9749 7.1051C31.3452 7.1051 31.561 7.33194 31.561 7.67616V8.06583H33.1341V7.62264C33.1341 6.24986 31.9005 6.03549 31.0085 6.03549C29.8892 6.03549 28.9725 6.40576 28.8058 7.43403C28.7598 7.71524 28.7534 7.96686 28.8205 8.28375C29.093 9.5727 31.3333 9.94467 31.658 10.7607C31.7189 10.9136 31.6999 11.108 31.67 11.227C31.6187 11.4365 31.4763 11.6501 31.0562 11.6501C30.6617 11.6501 30.4223 11.4228 30.4223 11.0787L30.4213 10.4686H28.7309L28.7305 10.9545C28.7305 12.3604 29.8373 12.7847 31.0216 12.7847C32.1619 12.7847 33.0996 12.3961 33.2492 11.3436C33.3257 10.7999 33.2698 10.4438 33.2424 10.3103C32.9759 8.99017 30.5848 8.59696 30.4071 7.85882Z" fill="white"></path><path d="M39.2371 6.20184H37.6258V10.9113C37.6264 10.993 37.6241 11.0858 37.6107 11.1544C37.5791 11.311 37.443 11.6158 37.0004 11.6158C36.5573 11.6158 36.4204 11.311 36.3896 11.1544C36.376 11.0858 36.3727 10.993 36.3743 10.9113V6.20184H34.7642V10.7662C34.7611 10.8836 34.7732 11.123 34.7789 11.1852C34.8905 12.3733 35.8297 12.7583 37.0004 12.7583C38.1706 12.7583 39.1098 12.3733 39.2208 11.1852C39.2271 11.123 39.2392 10.8836 39.2371 10.7662V6.20184Z" fill="white"></path><path d="M50.2925 8.99333V9.9215H50.9451V10.846C50.9463 10.9265 50.9431 11.0156 50.93 11.0874C50.9012 11.2577 50.7404 11.5496 50.2793 11.5496C49.819 11.5496 49.6583 11.2577 49.6284 11.0875C49.6162 11.0157 49.6131 10.9267 49.6135 10.846V7.93575C49.6135 7.8321 49.6211 7.71826 49.6393 7.63444C49.6744 7.47741 49.8106 7.17255 50.2735 7.17255C50.7603 7.17255 50.8813 7.49411 50.91 7.63444C50.929 7.72619 50.93 7.87699 50.93 7.87699V8.23381H52.5355V8.0217C52.5355 8.0217 52.5412 7.80534 52.5208 7.60258C52.4034 6.40878 51.4151 6.02959 50.2863 6.02959C49.1568 6.02959 48.1936 6.41246 48.0517 7.60258C48.0386 7.70892 48.0248 7.90857 48.0248 8.0217L48.0244 10.6998C48.0248 10.8198 48.0281 10.9073 48.0465 11.119C48.1528 12.2786 49.1568 12.6924 50.2857 12.6924C51.4139 12.6924 52.4193 12.2785 52.5245 11.119C52.5437 10.9073 52.5464 10.8198 52.5476 10.6998V8.99333H50.2925Z" fill="white"></path></g></g></svg>