<svg xmlns="http://www.w3.org/2000/svg" width="82" height="36" viewBox="0 0 82 36" fill="none"><g clip-path="url(#clip0_305_46)"><path d="M67.152 6.99997H67.1669C67.2863 7.91483 67.4126 8.82911 67.5337 9.7434C68.4206 9.43254 69.3057 9.11711 70.1955 8.81368C69.58 9.61083 68.9595 10.404 68.3389 11.1971C69.0097 11.7223 69.6863 12.24 70.3583 12.764C69.4595 12.828 68.5612 12.9034 67.6623 12.9708C67.6063 13.9297 67.5652 14.8897 67.5103 15.8485C67.0069 15.144 66.5166 14.4303 66.0115 13.7268C65.28 14.3971 64.5623 15.0834 63.8172 15.7377L63.8212 15.7154C64.0926 14.7737 64.3669 13.8325 64.6343 12.8903C63.7709 12.7725 62.9063 12.66 62.0435 12.5365C62.8846 12.0571 63.7246 11.5748 64.568 11.0988C64.2223 10.2783 63.8737 9.45883 63.5326 8.63597C64.3086 8.98511 65.0789 9.34683 65.856 9.69368C66.288 8.79597 66.7109 7.89368 67.152 6.99997Z" fill="white"></path><path d="M40.3812 15.0902C41.1298 15.0285 41.8807 14.9919 42.6304 14.9405C42.0904 17.7588 41.5567 20.5782 41.0201 23.3971C40.8161 24.4622 40.4178 25.5222 39.6915 26.3445C39.0149 27.1217 38.0549 27.6108 37.0544 27.8182C36.0909 28.0142 35.0892 28.0445 34.1189 27.8817C33.1298 27.7097 32.1435 27.2565 31.5281 26.4382C30.9858 25.744 30.7807 24.8377 30.8298 23.9697C30.9104 22.5714 31.5109 21.1851 32.5647 20.2462C33.7709 19.1611 35.4149 18.7039 37.0064 18.6234C37.8967 18.5954 38.7875 18.6222 39.6767 18.6702C39.9161 17.4777 40.1492 16.2839 40.3812 15.0902ZM36.7481 20.1885C35.8807 20.3142 35.0161 20.648 34.3875 21.2754C33.6944 21.9737 33.3487 22.9445 33.2355 23.9057C33.1647 24.5131 33.2492 25.1931 33.6755 25.6622C34.0887 26.1142 34.7212 26.2742 35.3127 26.3005C36.1052 26.3434 36.9555 26.1908 37.5772 25.6662C38.1544 25.1845 38.4612 24.4588 38.5995 23.7348C38.8309 22.5502 39.0835 21.3691 39.3024 20.1822C38.4538 20.0994 37.5938 20.0565 36.7481 20.1885Z" fill="white"></path><path d="M64.9493 20.1245C66.4916 18.9165 68.5459 18.4891 70.467 18.7325C71.4379 18.8645 72.4253 19.2205 73.1116 19.9457C73.6522 20.4903 73.9436 21.2445 74.0002 22.0028V22.6257C73.9384 23.3205 73.7584 24.0057 73.4544 24.6343C72.9464 25.7114 72.0859 26.6068 71.0613 27.2057C69.6322 28.044 67.915 28.3263 66.2802 28.128C65.3024 28.0045 64.3133 27.6491 63.6127 26.9325C62.9922 26.3057 62.6882 25.4148 62.699 24.5411C62.7202 22.8268 63.5933 21.164 64.9493 20.1245ZM68.491 20.3057C67.5984 20.464 66.7842 20.972 66.219 21.676C65.6607 22.3565 65.3379 23.2108 65.231 24.08C65.179 24.6023 65.2099 25.1628 65.4944 25.62C65.7579 26.064 66.2419 26.3297 66.7339 26.4411C67.6184 26.6337 68.5733 26.5103 69.3716 26.0788C70.2682 25.604 70.9299 24.748 71.2482 23.7925C71.4699 23.1188 71.5847 22.3754 71.3756 21.684C71.2259 21.1725 70.8573 20.7274 70.3733 20.5005C69.7916 20.2223 69.1179 20.192 68.491 20.3057Z" fill="white"></path><path d="M24.4893 18.7599C25.6619 18.6428 26.8973 18.7234 27.9728 19.2428C28.7505 19.6114 29.3985 20.2759 29.6745 21.0994C30.0259 22.1365 29.8568 23.2811 29.4573 24.2794C28.9442 25.5605 27.9373 26.6188 26.7191 27.2548C25.3716 27.9719 23.7951 28.2079 22.2871 28.0308C21.2768 27.9085 20.2471 27.5314 19.5499 26.7617C18.9516 26.1074 18.6876 25.1971 18.7373 24.3217C18.8071 22.9348 19.4219 21.5845 20.4173 20.6177C21.4956 19.5354 22.9825 18.9205 24.4893 18.7599ZM24.5482 20.3068C23.8888 20.4062 23.2596 20.6919 22.7482 21.1194C21.9579 21.7651 21.4568 22.7199 21.2751 23.7165C21.1608 24.3045 21.1493 24.9519 21.4465 25.4914C21.6722 25.9194 22.1053 26.2028 22.5642 26.3291C23.3945 26.5508 24.3002 26.4725 25.0831 26.1194C26.0025 25.7051 26.7162 24.8982 27.0739 23.9611C27.3265 23.2954 27.4745 22.5577 27.3191 21.8514C27.2105 21.3457 26.9059 20.8765 26.4573 20.6102C25.8899 20.2657 25.1928 20.2182 24.5482 20.3068Z" fill="white"></path><path d="M45.974 19.1354C47.0911 18.7389 48.2985 18.6269 49.4745 18.7377C50.2597 18.8246 51.0882 19.044 51.6545 19.628C52.2088 20.1834 52.3265 21.0571 52.1065 21.7874C51.926 22.4063 51.4711 22.9097 50.9391 23.2566C50.2465 23.7069 49.4391 23.9463 48.6305 24.0829C47.2334 24.3086 45.7991 24.2331 44.4157 23.9537C44.3494 24.6269 44.4677 25.3451 44.87 25.9029C45.3448 26.572 46.1322 26.9314 46.91 27.1171C48.1031 27.3926 49.3442 27.3657 50.5545 27.2337L50.5191 27.26C49.5842 27.9063 48.4494 28.2246 47.3248 28.3143H46.4808C45.6431 28.2594 44.7985 28.0891 44.05 27.6966C43.3042 27.3154 42.6671 26.696 42.3345 25.9206C41.978 25.1354 41.994 24.24 42.1511 23.4091C42.3528 22.3469 42.8825 21.3531 43.6454 20.588C44.2962 19.9326 45.1048 19.4423 45.974 19.1354ZM46.4928 20.5777C45.6911 21.0149 45.078 21.7537 44.7345 22.5937C45.7888 22.7897 46.8757 22.8526 47.9408 22.7109C48.526 22.6223 49.138 22.4749 49.5951 22.0766C50.002 21.7223 50.142 21.0571 49.8271 20.6C49.5694 20.252 49.1162 20.1446 48.7071 20.1103C47.9454 20.0577 47.1642 20.2097 46.4928 20.5777Z" fill="white"></path><path d="M11.9486 19.3526C12.9897 18.9691 14.1051 18.8406 15.208 18.804C16.452 18.7737 17.6966 18.8731 18.9269 19.0566C18.7754 19.488 18.6171 19.916 18.4623 20.3457C17.0326 20.2228 15.5846 20.156 14.1594 20.364C13.6314 20.4543 13.0771 20.5646 12.6394 20.8931C12.384 21.0771 12.2514 21.4434 12.4103 21.7314C12.5806 22.02 12.9223 22.1314 13.2263 22.2177C14.2457 22.4726 15.3217 22.4817 16.3109 22.8588C16.7703 23.0343 17.2229 23.3251 17.4423 23.7817C17.7069 24.32 17.6411 24.9526 17.4989 25.5166C17.284 26.3337 16.6663 26.9977 15.9223 27.3743C14.7549 27.9794 13.412 28.1063 12.1171 28.1268C10.732 28.1063 9.33829 27.9703 8 27.6V27.5503C8.11371 27.1154 8.22057 26.6794 8.336 26.2451C9.472 26.424 10.6189 26.5503 11.7697 26.5583C12.4411 26.5451 13.1206 26.5091 13.7691 26.3211C14.1194 26.212 14.4743 26.0623 14.7314 25.7914C14.9737 25.5417 15.1029 25.1754 15.0429 24.8297C15.0017 24.6 14.8297 24.4171 14.6297 24.3103C14.2611 24.1114 13.84 24.0486 13.432 23.9817C12.5851 23.8491 11.7086 23.8063 10.9063 23.4771C10.4554 23.296 10.0366 22.96 9.88229 22.484C9.67829 21.8583 9.79943 21.1394 10.1749 20.6017C10.5983 19.992 11.2674 19.6097 11.9486 19.3526Z" fill="white"></path><path d="M52.6611 18.7988C53.36 18.8023 54.0588 18.7971 54.7577 18.8011C55.6263 19.9868 56.584 21.1028 57.5486 22.2108C57.0548 22.6423 56.5548 23.0668 56.044 23.4777L56.0131 23.4788C55.904 23.428 55.848 23.3125 55.7726 23.2245C54.6594 21.8051 53.6086 20.3348 52.6611 18.7988Z" fill="white"></path><path d="M57.2397 25.0154C57.8169 24.62 58.366 24.184 58.8826 23.7125C60.2055 25.1742 61.5563 26.6108 62.914 28.04C61.9632 28.0451 61.0123 28.0445 60.0615 28.0405C59.0735 27.0771 58.1335 26.0662 57.2397 25.0154Z" fill="white"></path><path d="M60.2607 19.6617C61.495 18.3914 62.715 17.1 63.8212 15.7154L63.8172 15.7377C62.8675 18.7457 61.2252 21.576 58.883 23.7125C58.3664 24.184 57.8172 24.62 57.2401 25.0154C55.2681 26.368 52.9218 27.216 50.5195 27.26L50.555 27.2337C52.487 26.1394 54.3201 24.876 56.0441 23.4777C56.555 23.0668 57.055 22.6423 57.5487 22.2108C58.4812 21.392 59.3812 20.5371 60.2607 19.6617Z" fill="#E3001B"></path></g><defs><clipPath id="clip0_305_46"><rect width="66" height="21.3143" fill="white" transform="translate(8 7)"></rect></clipPath></defs></svg>