<svg xmlns="http://www.w3.org/2000/svg" width="66" height="34" viewBox="0 0 66 34" fill="none"><path d="M17.0628 9.5785C16.4898 10.254 15.5731 10.7869 14.6563 10.7108C14.5417 9.79734 14.9905 8.82683 15.5158 8.2274C16.0887 7.53283 17.0915 7.03806 17.9032 7C17.9987 7.95147 17.6262 8.88392 17.0628 9.5785ZM17.8936 10.8915C16.5662 10.8154 15.4298 11.6432 14.7995 11.6432C14.1597 11.6432 13.1952 10.9296 12.1447 10.9486C10.7791 10.9677 9.50899 11.7383 8.81186 12.9657C7.3794 15.4206 8.43942 19.0552 9.82413 21.0533C10.5022 22.0428 11.3139 23.1275 12.3834 23.0894C13.3957 23.0514 13.7968 22.4329 15.0192 22.4329C16.2511 22.4329 16.6044 23.0894 17.674 23.0704C18.7818 23.0514 19.4789 22.0809 20.1569 21.0913C20.9304 19.9686 21.2456 18.8744 21.2647 18.8173C21.2456 18.7983 19.1255 17.9895 19.1064 15.5538C19.0873 13.5176 20.7776 12.5471 20.854 12.49C19.8991 11.0818 18.4093 10.9296 17.8936 10.8915ZM25.562 8.13226V22.9657H27.8731V17.8944H31.0722C33.9944 17.8944 36.0476 15.8963 36.0476 13.0038C36.0476 10.1113 34.0326 8.13226 31.1486 8.13226H25.562ZM27.8731 10.0733H30.5374C32.5429 10.0733 33.6888 11.1389 33.6888 13.0133C33.6888 14.8877 32.5429 15.9629 30.5279 15.9629H27.8731V10.0733ZM40.2686 23.0799C41.7201 23.0799 43.0667 22.3473 43.6778 21.1865H43.7256V22.9657H45.8647V15.5823C45.8647 13.4415 44.1458 12.0618 41.5005 12.0618C39.0462 12.0618 37.2318 13.4605 37.1649 15.3825H39.2468C39.4187 14.4691 40.2686 13.8696 41.4337 13.8696C42.847 13.8696 43.6396 14.5262 43.6396 15.7345V16.5528L40.7556 16.7241C38.0722 16.8858 36.6206 17.98 36.6206 19.883C36.6206 21.8049 38.1199 23.0799 40.2686 23.0799ZM40.8893 21.3197C39.6574 21.3197 38.8743 20.7298 38.8743 19.8259C38.8743 18.8934 39.6288 18.3511 41.0708 18.2655L43.6396 18.1037V18.941C43.6396 20.3302 42.4555 21.3197 40.8893 21.3197ZM48.7201 27C50.9738 27 52.0338 26.1437 52.9601 23.5461L57.0188 12.2046H54.6695L51.9479 20.9677H51.9001L49.1785 12.2046H46.7624L50.6778 23.0038L50.4677 23.6603C50.1143 24.7736 49.5414 25.2017 48.5195 25.2017C48.3381 25.2017 47.9847 25.1827 47.8415 25.1637V26.9429C47.9752 26.981 48.5482 27 48.7201 27Z" fill="white"></path></svg>