<svg xmlns="http://www.w3.org/2000/svg" width="66" height="34" viewBox="0 0 66 34" fill="none"><path fill-rule="evenodd" clip-rule="evenodd" d="M16.6679 14.2744C17.0015 14.2744 17.2718 14.5438 17.2718 14.8761V21.3449C17.2718 21.5598 17.1567 21.7583 16.9699 21.866L8.93676 26.4867C8.84346 26.5404 8.73903 26.5672 8.63483 26.5672C8.53063 26.5672 8.42654 26.5405 8.33336 26.4869L0.302492 21.8766C0.115451 21.7692 0 21.5705 0 21.3553V14.8895C0 14.5573 0.270561 14.2878 0.604186 14.2878C0.937697 14.2878 1.20791 14.5573 1.20791 14.8895V21.0076L8.63449 25.2707L16.0639 20.9973V14.8761C16.0639 14.5438 16.3342 14.2744 16.6679 14.2744ZM30.7857 12.3993C31.933 12.3993 32.8664 13.3292 32.8664 14.4723V15.7843C32.8664 16.756 32.1907 17.8266 31.2832 18.0497L32.7794 20.9086C32.9675 21.2515 32.8399 21.682 32.4964 21.8707C32.0856 22.0964 31.6734 21.8698 31.5309 21.5888L29.6958 18.1121H28.2455V21.213C28.2455 21.604 27.9263 21.9217 27.5341 21.9217C27.1417 21.9217 26.8226 21.604 26.8226 21.213V14.4723C26.8226 13.3292 27.756 12.3993 28.9034 12.3993H30.7857ZM44.6244 12.4063C45.0165 12.4063 45.3358 12.7243 45.3358 13.1152V21.22C45.3358 21.611 45.0165 21.9288 44.6244 21.9288C44.2321 21.9288 43.9128 21.611 43.9128 21.22V13.1152C43.9128 12.7243 44.2321 12.4063 44.6244 12.4063ZM47.242 12.4063C47.4958 12.4063 47.7321 12.5425 47.859 12.7618L51.1513 18.9771V13.1152C51.1513 12.7243 51.4705 12.4063 51.8629 12.4063C52.2552 12.4063 52.5744 12.7243 52.5744 13.1152V21.22C52.5744 21.5405 52.3582 21.8254 52.0464 21.905C51.8752 21.9485 51.4717 21.9647 51.246 21.5733L47.9536 15.6424V21.22C47.9536 21.611 47.6343 21.9288 47.242 21.9288C46.8499 21.9288 46.5306 21.611 46.5306 21.22V13.1152C46.5306 12.4087 47.1802 12.4063 47.242 12.4063ZM61.6749 12.4063C62.0671 12.4063 62.3864 12.7242 62.3864 13.1151V20.5111H65.2885C65.6808 20.5111 66 20.8292 66 21.2201C66 21.6109 65.6808 21.9288 65.2885 21.9288H61.6749C61.2825 21.9288 60.9633 21.6109 60.9633 21.2201V13.1151C60.9633 12.7242 61.2825 12.4063 61.6749 12.4063ZM23.5484 12.3993C24.6958 12.3993 25.6291 13.3292 25.6291 14.4723V19.8488C25.6291 20.9919 24.6958 21.9218 23.5484 21.9218H21.6661C20.5187 21.9218 19.5854 20.9919 19.5854 19.8488V14.4723C19.5854 13.3292 20.5187 12.3993 21.6661 12.3993H23.5484ZM34.7713 12.3993C35.1636 12.3993 35.4827 12.7173 35.4827 13.1081V21.213C35.4827 21.6038 35.1636 21.9218 34.7713 21.9218C34.379 21.9218 34.0598 21.6038 34.0598 21.213V13.1081C34.0598 12.7173 34.379 12.3993 34.7713 12.3993ZM40.6391 12.3993C41.7863 12.3993 42.7199 13.3292 42.7199 14.4724C42.7199 14.8631 42.4006 15.1811 42.0084 15.1811C41.616 15.1811 41.2969 14.8631 41.2969 14.4724C41.2969 14.1109 41.0018 13.8169 40.6391 13.8169H38.7568C38.3942 13.8169 38.0989 14.1109 38.0989 14.4724V19.8489C38.0989 20.2101 38.3942 20.5042 38.7568 20.5042H40.6391C41.0018 20.5042 41.2969 20.2101 41.2969 19.8489V18.1037H39.6979C39.3056 18.1037 38.9864 17.7857 38.9864 17.3949C38.9864 17.0041 39.3056 16.6861 39.6979 16.6861L42.0083 16.686C42.1984 16.686 42.3771 16.7598 42.5115 16.8936C42.6458 17.0274 42.7199 17.2055 42.7199 17.3948V19.8489C42.7199 20.9918 41.7863 21.922 40.6391 21.922H38.7568C37.6094 21.922 36.676 20.9918 36.676 19.8489V14.4724C36.676 13.3292 37.6094 12.3993 38.7568 12.3993H40.6391ZM57.7105 12.4063C58.8538 12.4053 59.7831 13.3002 59.7839 14.649V21.1921C59.7839 21.6121 59.4647 21.9167 59.0725 21.9167C58.6801 21.9167 58.3611 21.5988 58.3611 21.208V18.1105H55.1876V21.208C55.1876 21.5988 54.8684 21.9167 54.4762 21.9167C54.084 21.9167 53.7648 21.5988 53.7648 21.208V14.472C53.7648 13.3328 54.6949 12.4063 55.8382 12.4063H57.7105ZM23.5484 13.8169H21.6661C21.3034 13.8169 21.0083 14.1109 21.0083 14.4723V19.8488C21.0083 20.2101 21.3034 20.5042 21.6661 20.5042H23.5484C23.9111 20.5042 24.2062 20.2101 24.2062 19.8488V14.4723C24.2062 14.1109 23.9111 13.8169 23.5484 13.8169ZM8.33464 6.94654C8.52156 6.83877 8.75212 6.83877 8.93905 6.9462L16.9699 11.5655C17.1567 11.6731 17.2718 11.8717 17.2718 12.0866C17.2718 12.3016 17.1567 12.5003 16.9699 12.6078L8.93689 17.2285C8.84348 17.2822 8.73906 17.309 8.63474 17.309C8.53065 17.309 8.42668 17.2822 8.33339 17.2287L0.302511 12.6187C0.115475 12.5113 0.000364477 12.3127 2.46269e-05 12.0978C2.46269e-05 11.8828 0.114904 11.684 0.301719 11.5764L8.33464 6.94654ZM30.7857 13.8169H28.9034C28.5406 13.8169 28.2455 14.1109 28.2455 14.4723V16.6945H30.7857C31.1484 16.6945 31.4435 16.1455 31.4435 15.7843V14.4723C31.4435 14.1109 31.1484 13.8169 30.7857 13.8169ZM57.7105 13.824H55.8382C55.4796 13.824 55.1876 14.1146 55.1876 14.472V16.693H58.3611V14.472C58.3611 14.1146 58.0692 13.824 57.7105 13.824ZM8.63736 8.16229L1.81212 12.0962L8.63451 16.0125L15.46 12.0866L8.63736 8.16229ZM27.9424 8.30447C28.4849 8.30425 28.9259 8.72878 28.9263 9.36899V10.8069C28.9263 11.0063 28.7748 11.1508 28.5887 11.1508C28.4026 11.1508 28.2511 10.9999 28.2511 10.8145V9.28498C28.2511 9.11539 28.1126 8.97739 27.9424 8.97739H27.0538C26.8835 8.97739 26.745 9.11539 26.745 9.28498V10.8145C26.745 10.9999 26.5936 11.1508 26.4074 11.1508C26.2213 11.1508 26.0698 10.9999 26.0698 10.8145V9.28498C26.0698 8.7444 26.5112 8.30447 27.0538 8.30447H27.9424ZM24.6853 8.30457C25.2279 8.30457 25.6694 8.74428 25.6694 9.28486V10.1702C25.6697 10.7107 25.2436 11.1501 24.601 11.1504H23.7658C23.728 11.1504 23.693 11.1436 23.6597 11.1336C23.2097 11.051 22.8666 10.6628 22.8554 10.1935C22.8678 9.66414 23.2898 9.2379 23.9226 9.23745H24.9892C24.9661 9.0905 24.8392 8.97729 24.6853 8.97729H23.2936C23.1073 8.97729 22.956 8.8265 22.956 8.64094C22.956 8.45551 23.1073 8.3046 23.2936 8.3046L24.6853 8.30457ZM31.6979 8.30478C31.898 8.30478 32.0431 8.45558 32.0431 8.64113C32.0431 8.82657 31.8917 8.97748 31.7055 8.97748H30.3138C30.1435 8.97748 30.005 9.11548 30.005 9.28507V10.1704C30.005 10.34 30.1435 10.478 30.3138 10.478H31.7055C31.8917 10.478 32.0431 10.6288 32.0431 10.8143C32.0431 10.9998 31.8917 11.1507 31.7055 11.1507H30.3138C29.7711 11.1507 29.3297 10.711 29.3297 10.1704V9.28507C29.3293 8.74449 29.7556 8.30512 30.3981 8.30478H31.6979ZM34.3335 8.30468C34.8761 8.30468 35.3175 8.74439 35.3175 9.28508V10.1703C35.3179 10.7108 34.8917 11.1502 34.2492 11.1507H33.4425C32.9 11.1507 32.4586 10.711 32.4586 10.1704V9.28508C32.4582 8.7445 32.8844 8.30513 33.5268 8.30479L34.3335 8.30468ZM21.1455 6.89005C21.6582 6.89005 22.0752 7.30564 22.0752 7.81644V8.19355C22.0752 8.7562 21.7342 8.79141 21.7342 8.79141C21.7342 8.79141 22.5438 8.87643 22.5438 9.63584V10.222C22.5438 10.7329 22.1268 11.1483 21.6141 11.1483L20.5151 11.1484C19.7535 11.1484 19.5854 10.9378 19.5854 10.222L19.5857 7.73508C19.5914 7.07615 19.679 6.89005 20.3721 6.89005H21.1455ZM21.6141 9.21312H21.1885L21.1023 9.21804H20.2213V10.2222C20.2213 10.4536 20.2756 10.5151 20.5151 10.5151H21.6141C21.7761 10.5151 21.908 10.3837 21.908 10.2222V9.62005C21.908 9.45861 21.7761 9.21328 21.6141 9.21328V9.21312ZM34.3335 8.97749H33.4425C33.2724 8.97749 33.1339 9.11538 33.1339 9.28508V10.1704C33.1339 10.34 33.2724 10.478 33.4425 10.478H33.5718L33.5728 10.4779H34.3336C34.5039 10.4779 34.6423 10.34 34.6423 10.1703V9.28508C34.6423 9.11538 34.5039 8.97749 34.3336 8.97749H34.3335ZM24.9941 9.91012H23.8382C23.6762 9.91012 23.5442 10.0356 23.5319 10.1939C23.5443 10.3523 23.6762 10.4778 23.8382 10.4778H24.6853C24.8556 10.4778 24.9941 10.3397 24.9941 10.1702V9.91012ZM21.1455 7.52357H20.3722C20.1374 7.52357 20.2213 7.58131 20.2213 7.81644V8.59555H20.8244L20.9501 8.60048H21.1455C21.3075 8.60048 21.4393 8.35515 21.4393 8.19372V7.81661C21.4393 7.65518 21.3075 7.52374 21.1455 7.52374V7.52357Z" fill="#00A857"></path></svg>