<svg xmlns="http://www.w3.org/2000/svg" width="79" height="34" viewBox="0 0 79 34" fill="none"><path d="M18.7472 8.13892C21.4934 7.94798 24.2953 8.28918 26.8721 9.27958C28.4719 9.89972 29.9952 10.778 31.2189 11.9934C32.1736 12.9423 32.9341 14.1261 33.2288 15.4519C33.3915 16.136 33.3815 16.8433 33.3616 17.5415C33.3027 19.0848 32.7116 20.5874 31.761 21.7986C30.3389 23.6233 28.2436 24.8097 26.0627 25.4945C24.0886 26.1147 22.009 26.3529 19.9443 26.333C17.3052 26.3031 14.6295 25.8366 12.2494 24.6602C10.8099 23.9454 9.48413 22.9517 8.51615 21.6575C7.69261 20.5625 7.15466 19.2442 7.03511 17.8752C6.95874 16.7985 6.97949 15.6852 7.37964 14.6674C8.0803 12.8037 9.59869 11.3691 11.2756 10.3613C13.5329 9.01476 16.1388 8.32903 18.7472 8.13892ZM18.1927 8.6968C15.5685 8.9691 12.9443 9.75361 10.7684 11.2811C11.7248 11.6406 12.7069 11.932 13.7006 12.1736C14.2751 12.3197 14.8778 12.4293 15.4689 12.3139C16.1039 12.1835 16.7174 11.9361 17.3708 11.8988C17.6447 11.9146 17.8365 11.7087 18.0441 11.5667C18.7007 11.1168 19.4869 10.881 20.2756 10.8137C21.4403 10.7042 22.6059 11.0163 23.6535 11.5094C24.2455 11.7834 24.8739 11.9818 25.5181 12.0889C26.9834 12.3471 28.4926 12.0391 29.8408 11.4463C29.0588 10.8644 28.2037 10.3837 27.3105 9.99519C24.4555 8.7657 21.2734 8.39545 18.1927 8.6968ZM19.0071 11.6157C18.2225 11.9303 17.6066 12.533 17.0321 13.1333C16.6718 13.5276 16.2957 13.9086 15.9504 14.3162C16.3663 14.699 17.0097 14.6948 17.5177 14.5263C18.4259 14.0904 19.0743 13.2453 20.0091 12.8527C20.5147 12.641 21.114 12.6285 21.6022 12.8958C22.2298 13.2354 22.7578 13.7235 23.3082 14.171C24.6307 15.2834 25.9332 16.4199 27.2374 17.5548C29.0206 16.7719 30.886 16.1825 32.7838 15.7508C32.4858 14.1751 31.497 12.817 30.2875 11.8017C28.5939 12.5953 26.6347 12.9473 24.8033 12.4508C23.8818 12.2466 23.0782 11.7153 22.1634 11.492C21.134 11.2039 20.0049 11.218 19.0071 11.6157ZM7.6262 15.6196C8.49788 15.8803 9.39447 16.0455 10.2628 16.3178C11.3072 16.6424 12.3657 16.9952 13.2797 17.6104C13.5636 17.3771 13.9206 17.2094 14.2966 17.2526C14.6437 17.2725 14.945 17.4701 15.1833 17.7108C15.8607 17.2509 16.8984 17.4377 17.3102 18.1658C17.8423 18.0064 18.4708 18.1384 18.8493 18.5568C19.115 18.849 19.1739 19.2591 19.1714 19.6402C19.7036 19.646 20.2341 19.9108 20.5055 20.3773C20.777 20.8049 20.7778 21.3511 20.5885 21.8111C21.1016 22.0717 21.8247 22.2826 22.2879 21.821C21.9608 21.4599 21.6354 21.0979 21.305 20.741C21.2137 20.6306 21.0775 20.521 21.1232 20.3607C21.2211 20.2894 21.3149 20.2952 21.4038 20.3773C21.8811 20.7318 22.2713 21.1893 22.7171 21.5794C23.1148 21.7596 23.6751 21.5985 23.8511 21.1793C23.92 20.9958 23.8196 20.8099 23.6992 20.677C23.3223 20.2512 22.9413 19.8294 22.5627 19.4052C22.4855 19.3048 22.3535 19.1819 22.4672 19.0582C22.6158 18.986 22.7387 19.1205 22.8491 19.2018C23.3256 19.6111 23.7548 20.0727 24.2156 20.4994C24.6456 20.8298 25.2965 20.5866 25.5621 20.1582C25.7198 19.9008 25.6451 19.5613 25.4318 19.3604C24.8822 18.7975 24.3193 18.248 23.7681 17.6868C23.7067 17.6087 23.5788 17.4784 23.6867 17.3846C23.783 17.2609 23.9233 17.3979 24.013 17.4568C24.6406 17.9873 25.2425 18.5476 25.8527 19.0989C26.2312 19.4758 26.9319 19.3413 27.1992 18.898C27.3736 18.585 27.2316 18.1865 26.9618 17.9781C25.377 16.6059 23.8055 15.2162 22.18 13.8929C21.6927 13.4985 21.0792 13.0843 20.4217 13.2827C19.4645 13.5799 18.7995 14.3852 17.9502 14.8733C17.4405 15.1763 16.8071 15.168 16.2509 15.0119C15.9487 14.9231 15.615 14.7662 15.4971 14.4516C15.4149 14.2366 15.5295 14.0141 15.6772 13.8605C16.1164 13.3881 16.5489 12.9091 16.9972 12.445C16.5655 12.5372 16.1446 12.6742 15.7154 12.7746C15.043 12.9398 14.3423 12.8402 13.6773 12.6916C12.53 12.4235 11.4027 12.0656 10.3102 11.6257C9.035 12.6343 7.97072 14.0033 7.6262 15.6196ZM8.43728 19.7456C9.38285 21.2283 10.8373 22.3166 12.3914 23.097C14.955 24.3663 17.8506 24.8736 20.6965 24.8072C23.4327 24.7333 26.1947 24.1231 28.5939 22.7749C29.982 21.9862 31.2588 20.9228 32.0723 19.5322C32.646 18.5634 32.9324 17.4261 32.8544 16.3012C31.0662 16.7105 29.3012 17.2393 27.6052 17.9408C27.7695 18.2837 27.8409 18.6921 27.6732 19.0482C27.4184 19.6136 26.7468 19.8875 26.1532 19.8012C26.1466 20.6671 25.2309 21.254 24.4248 21.1361C24.2106 21.8393 23.412 22.2793 22.7013 22.0858C22.5386 22.2718 22.3468 22.4445 22.1003 22.5076C21.4926 22.711 20.8509 22.4984 20.3046 22.2212C19.9584 22.5258 19.5002 22.7259 19.0328 22.6553C18.4965 22.6014 18.0482 22.2237 17.8149 21.7513C17.1566 21.9281 16.4236 21.5819 16.1255 20.9726C15.3568 21.1071 14.5806 20.5583 14.4137 19.8037C13.9339 19.8552 13.4216 19.6792 13.1452 19.2699C12.8746 18.9138 12.8621 18.4364 12.9949 18.0246C12.4603 17.6577 11.8568 17.4095 11.2524 17.1837C10.0462 16.7395 8.78927 16.4581 7.53986 16.1684C7.41284 17.4203 7.75903 18.6929 8.43728 19.7456ZM13.4366 18.2363C13.2398 18.6929 13.5727 19.2624 14.0634 19.323C14.3531 19.3836 14.6171 19.2242 14.8321 19.0491C14.9077 19.3039 14.8296 19.5787 14.9251 19.8311C15.0463 20.2005 15.4049 20.4712 15.7885 20.511C16.0616 20.5384 16.2783 20.3417 16.5315 20.2786C16.4094 20.7866 16.8154 21.2441 17.3035 21.3146C17.6265 21.3985 17.8747 21.1419 18.1304 20.9958C18.1968 21.3121 18.2325 21.6666 18.489 21.8966C18.9074 22.3299 19.6919 22.271 20.0398 21.7787C20.4217 21.3071 20.2507 20.5343 19.7135 20.2586C19.3698 20.0445 18.9514 20.1399 18.6003 20.2802C18.5496 19.9639 18.7555 19.6676 18.6924 19.3479C18.6708 18.7037 17.8033 18.3534 17.3077 18.7195C17.2139 18.7652 17.1342 18.8947 17.018 18.8498C16.9457 18.6157 16.9241 18.3434 16.7232 18.1766C16.3829 17.8843 15.8458 17.8777 15.4772 18.1234C15.2754 18.2446 15.1376 18.4406 15.0114 18.634C14.9857 18.3401 14.8985 18.0213 14.6295 17.8594C14.2277 17.5705 13.6018 17.7723 13.4366 18.2363Z" fill="#28316B"></path><path d="M71.679 8.83129C72.0011 8.6005 72.412 8.57725 72.7947 8.57559C72.798 10.3455 72.7939 12.1163 72.7964 13.8862C72.7997 14.6259 72.4776 15.3863 71.8691 15.8255C71.2655 16.2638 70.4852 16.3626 69.7588 16.307C69.1552 16.2514 68.521 16.082 68.0719 15.6537C67.5107 15.0817 67.2923 14.2556 67.3031 13.472C67.3089 12.6551 67.4708 11.785 68.0113 11.1433C68.609 10.4053 69.7305 10.1513 70.5873 10.558C70.8861 10.6992 71.1136 10.9466 71.3062 11.2097C71.2996 10.6618 71.2954 10.1147 71.3062 9.56765C71.3079 9.28124 71.4399 8.99483 71.679 8.83129ZM69.7081 11.7029C69.215 11.8274 68.9651 12.3379 68.8771 12.7987C68.78 13.3831 68.8041 14.0182 69.0772 14.5553C69.4225 15.256 70.5317 15.3033 70.9849 14.6923C71.3178 14.2507 71.3726 13.6679 71.3303 13.1333C71.2913 12.6899 71.1634 12.2126 70.8081 11.9154C70.5084 11.6597 70.08 11.6007 69.7081 11.7029Z" fill="white"></path><path d="M75.4387 10.3787C76.1501 10.2691 76.9147 10.3007 77.568 10.6294C78.1126 10.9009 78.4962 11.4131 78.7328 11.9619C79.035 12.6733 79.069 13.4852 78.893 14.2332C78.688 15.0485 78.1525 15.8371 77.3356 16.131C76.576 16.3975 75.7209 16.4 74.9572 16.1501C74.2324 15.9135 73.7119 15.2776 73.4529 14.5811C73.0519 13.4662 73.1972 12.1238 73.9668 11.1989C74.327 10.7457 74.8733 10.4725 75.4387 10.3787ZM75.7691 11.6049C75.212 11.7178 74.8766 12.2699 74.8102 12.8004C74.733 13.3856 74.7413 14.0307 75.0584 14.5495C75.4818 15.2593 76.6607 15.2884 77.1264 14.6101C77.4078 14.2067 77.4618 13.6944 77.451 13.2154C77.4369 12.7406 77.3339 12.2267 76.9811 11.883C76.6656 11.5758 76.1841 11.5144 75.7691 11.6049Z" fill="white"></path><path d="M38.0952 11.0321C38.9785 10.1073 40.6795 10.0998 41.4923 11.1243C42.3631 10.0558 44.2211 10.0973 45.0421 11.2006C45.4813 11.771 45.5576 12.5189 45.5311 13.2155C45.5294 14.2117 45.5311 15.207 45.5302 16.2041C45.0786 16.2041 44.627 16.2041 44.1754 16.2041C44.1737 15.0676 44.1779 13.9319 44.1737 12.7962C44.1771 12.4417 44.0492 12.0466 43.7221 11.8648C43.2971 11.6381 42.7027 11.7062 42.388 12.0881C42.1996 12.3048 42.1431 12.6003 42.1489 12.8801C42.1506 13.9884 42.1498 15.0958 42.1498 16.2041C41.6973 16.2033 41.2449 16.2041 40.7933 16.2041C40.7899 15.0418 40.7999 13.8796 40.7891 12.7182C40.7999 12.2757 40.5069 11.8108 40.0428 11.7568C39.4716 11.6174 38.8233 12.0233 38.7909 12.6294C38.7602 13.8198 38.7876 15.0128 38.7784 16.2041C38.326 16.2041 37.8744 16.2033 37.4219 16.2041C37.4219 15.0709 37.4203 13.9377 37.4228 12.8045C37.4228 12.1595 37.6386 11.4987 38.0952 11.0321Z" fill="white"></path><path d="M47.0887 10.979C47.8707 10.3239 48.9981 10.2343 49.9487 10.5182C50.6186 10.7125 51.1616 11.2322 51.443 11.8639C51.7211 12.4509 51.7203 13.1142 51.7194 13.7501C50.3472 13.7517 48.974 13.7484 47.6018 13.7517C47.6383 14.1237 47.728 14.5205 48.0193 14.7803C48.3979 15.1464 48.9765 15.1688 49.4655 15.0684C49.7079 15.0227 49.8914 14.8492 50.0483 14.6699C50.573 14.6666 51.0968 14.6658 51.6215 14.6716C51.3425 15.4611 50.6352 16.0754 49.8183 16.253C48.6179 16.5461 47.1526 16.17 46.4927 15.0626C46.1324 14.4067 46.0875 13.6272 46.1523 12.8958C46.2162 12.1727 46.5117 11.4422 47.0887 10.979ZM48.3099 11.7095C47.9023 11.9038 47.723 12.3562 47.6366 12.7721C48.4901 12.7804 49.3435 12.7754 50.1977 12.7754C50.1487 12.4982 50.0939 12.2035 49.898 11.9893C49.5112 11.5518 48.8254 11.4787 48.3099 11.7095Z" fill="white"></path><path d="M53.4449 10.9424C54.0825 10.4684 54.9069 10.3439 55.6831 10.3721C55.6839 10.8752 55.6831 11.3791 55.6839 11.8822C55.1866 11.8424 54.603 11.8282 54.227 12.2134C53.8916 12.5679 53.8999 13.0926 53.8916 13.5492C53.8932 14.4342 53.8924 15.32 53.8924 16.2049C53.3976 16.2049 52.9028 16.2049 52.4089 16.2049C52.4097 15.1797 52.4064 14.1544 52.4097 13.1283C52.4205 12.3006 52.7642 11.443 53.4449 10.9424Z" fill="white"></path><path d="M56.7072 11.1276C57.1837 10.6286 57.8761 10.3912 58.5551 10.3713C59.2882 10.3455 60.0719 10.4684 60.6671 10.9267C61.1503 11.3094 61.3271 11.9378 61.4051 12.5239C60.8763 12.5256 60.3483 12.5239 59.8212 12.5256C59.7398 12.2126 59.6128 11.8648 59.2965 11.7211C58.8407 11.5227 58.2256 11.5833 57.9001 11.9893C57.588 12.3778 57.544 12.9008 57.5373 13.3798C57.5398 13.8414 57.5855 14.3428 57.8777 14.7206C58.1982 15.129 58.8059 15.1763 59.2633 15.0028C59.6219 14.8509 59.7373 14.4391 59.807 14.0913C60.3342 14.0913 60.8622 14.0905 61.3902 14.0921C61.2997 14.8675 60.8406 15.6005 60.1599 15.9891C59.5464 16.3336 58.8117 16.3792 58.1268 16.2937C57.5249 16.2223 56.9222 15.96 56.5453 15.471C56.0214 14.8193 55.8695 13.9477 55.9218 13.1324C55.9584 12.4052 56.1842 11.6547 56.7072 11.1276Z" fill="white"></path><path d="M62.8646 10.7241C63.5843 10.2966 64.4776 10.2924 65.2812 10.4269C65.8059 10.5448 66.4052 10.7324 66.6684 11.2479C66.949 11.8058 66.8228 12.45 66.8511 13.0502C66.8278 13.6521 66.9166 14.2689 66.7572 14.8584C66.6178 15.3722 66.2193 15.789 65.7378 16.0032C65.0496 16.3153 64.2725 16.3494 63.5295 16.3087C63.0148 16.2813 62.4769 16.092 62.1581 15.6678C61.5894 14.8658 61.7953 13.5243 62.7326 13.0884C63.3187 12.797 63.9853 12.7705 64.622 12.6792C64.857 12.6352 65.1243 12.6003 65.292 12.411C65.4879 12.157 65.3626 11.7178 65.0454 11.6273C64.6669 11.5111 64.2327 11.4862 63.8641 11.6464C63.6009 11.766 63.5179 12.0615 63.4448 12.3147C62.9716 12.3172 62.4976 12.3155 62.0244 12.3155C62.0709 11.702 62.3125 11.052 62.8646 10.7241ZM63.6989 13.8879C63.2008 14.1162 63.1892 14.9829 63.7196 15.178C64.1829 15.3399 64.7291 15.1796 65.082 14.8509C65.4398 14.4607 65.3684 13.8904 65.38 13.4031C64.8595 13.6945 64.2327 13.638 63.6989 13.8879Z" fill="white"></path><path d="M18.1923 8.6968C21.2731 8.39545 24.4551 8.7657 27.3101 9.99519C28.2034 10.3837 29.0585 10.8644 29.8405 11.4463C28.4923 12.0391 26.983 12.3471 25.5178 12.0889C24.8736 11.9818 24.2451 11.7834 23.6532 11.5094C22.6055 11.0163 21.44 10.7042 20.2752 10.8137C19.4866 10.881 18.7004 11.1168 18.0437 11.5667C17.8362 11.7087 17.6444 11.9146 17.3704 11.8988C16.7171 11.9361 16.1036 12.1835 15.4685 12.3139C14.8774 12.4293 14.2747 12.3197 13.7002 12.1736C12.7065 11.932 11.7244 11.6406 10.7681 11.2811C12.944 9.75361 15.5681 8.9691 18.1923 8.6968Z" fill="#50B4E9"></path><path d="M8.4375 19.7456C7.75925 18.6929 7.41307 17.4203 7.54008 16.1684C8.78949 16.4581 10.0464 16.7395 11.2526 17.1837C11.857 17.4095 12.4605 17.6577 12.9952 18.0246C12.8623 18.4364 12.8748 18.9138 13.1454 19.2699C13.4219 19.6792 13.9341 19.8552 14.4139 19.8037C14.5808 20.5583 15.357 21.1071 16.1257 20.9726C16.4238 21.5819 17.1568 21.9281 17.8151 21.7513C18.0484 22.2237 18.4967 22.6014 19.033 22.6553C19.5004 22.7259 19.9587 22.5258 20.3048 22.2212C20.8511 22.4984 21.4928 22.711 22.1005 22.5076C22.3471 22.4445 22.5388 22.2718 22.7016 22.0858C23.4122 22.2793 24.2108 21.8393 24.425 21.1361C25.2311 21.254 26.1468 20.6671 26.1534 19.8012C26.747 19.8875 27.4186 19.6136 27.6735 19.0482C27.8412 18.6921 27.7698 18.2837 27.6054 17.9408C29.3014 17.2393 31.0664 16.7105 32.8546 16.3012C32.9326 17.4261 32.6462 18.5634 32.0726 19.5322C31.259 20.9228 29.9822 21.9862 28.5941 22.7749C26.1949 24.1231 23.4329 24.7333 20.6967 24.8072C17.8508 24.8736 14.9552 24.3663 12.3916 23.097C10.8375 22.3166 9.38307 21.2283 8.4375 19.7456Z" fill="#50B4E9"></path><path d="M57.0959 18.5925C57.7733 18.5128 58.4948 18.5584 59.1091 18.8797C59.7608 19.2226 60.1792 19.8925 60.3826 20.5841C60.6474 21.5745 60.5204 22.7027 59.9086 23.5445C59.5474 24.0758 58.9497 24.4103 58.3213 24.51C57.614 24.6204 56.856 24.588 56.2018 24.2725C55.5991 23.982 55.1849 23.4025 54.9566 22.7882C54.5622 21.6641 54.7241 20.3134 55.5144 19.3953C55.9046 18.9254 56.4982 18.6655 57.0959 18.5925ZM57.3408 19.8294C56.7672 19.9149 56.4002 20.4678 56.328 21.0091C56.2442 21.611 56.2491 22.2801 56.5879 22.8089C57.022 23.4938 58.171 23.5162 58.6342 22.8521C58.9248 22.4437 58.9771 21.9215 58.9646 21.4342C58.9497 20.9751 58.8484 20.4811 58.5163 20.1408C58.2175 19.8303 57.7501 19.7564 57.3408 19.8294Z" fill="#50B4E9"></path><path d="M38.1834 19.2516C38.7919 18.6979 39.6553 18.5684 40.4481 18.5983C41.0226 18.6024 41.6021 18.8066 42.0205 19.206C42.5534 19.7232 42.8432 20.4554 42.8838 21.1901C42.9503 22.144 42.7726 23.19 42.0952 23.9089C41.2775 24.8204 39.5449 24.808 38.899 23.7038C38.909 24.3315 38.9048 24.9591 38.904 25.5875C38.9289 25.9461 38.6475 26.2873 38.293 26.3388C38.0033 26.3729 37.711 26.3504 37.4205 26.3546C37.4221 24.6054 37.418 22.8554 37.423 21.1062C37.4238 20.423 37.6488 19.7049 38.1834 19.2516ZM39.7441 19.9191C39.2369 20.0752 38.9754 20.6114 38.9347 21.1087C38.8766 21.704 38.8658 22.3839 39.2618 22.8753C39.6553 23.3934 40.5336 23.4382 40.9695 22.9509C41.3198 22.5673 41.4003 22.0219 41.3904 21.5213C41.3787 21.068 41.2999 20.5807 40.9927 20.2279C40.693 19.8751 40.1717 19.7904 39.7441 19.9191Z" fill="#50B4E9"></path><path d="M44.2558 19.0192C44.9565 18.5742 45.8415 18.5626 46.6376 18.6796C47.1507 18.7892 47.7309 18.9461 48.0398 19.4102C48.3378 19.8601 48.2797 20.4247 48.2838 20.9377C48.2714 21.5471 48.3104 22.1581 48.2614 22.7657C48.2125 23.3303 47.8887 23.8632 47.3972 24.1496C46.6816 24.573 45.8166 24.6154 45.0063 24.5788C44.4177 24.5598 43.7851 24.3157 43.4888 23.7769C43.0936 23.0156 43.2463 21.9057 44.0201 21.4391C44.6444 21.0573 45.3973 21.0473 46.0997 20.9385C46.3412 20.8962 46.6301 20.8464 46.7679 20.6173C46.895 20.3566 46.7754 19.9822 46.4832 19.8967C46.1104 19.778 45.6837 19.7555 45.3168 19.905C45.0437 20.0187 44.949 20.3201 44.8818 20.5824C44.4078 20.5824 43.9329 20.5841 43.4589 20.5816C43.5062 19.9855 43.7303 19.3546 44.2558 19.0192ZM45.1474 22.1464C44.7465 22.3233 44.6585 22.872 44.8693 23.224C45.0669 23.5071 45.4554 23.5469 45.7701 23.4863C46.1013 23.4183 46.4483 23.2647 46.631 22.9667C46.8593 22.5731 46.8012 22.1024 46.8128 21.6683C46.2997 21.9621 45.6779 21.9057 45.1474 22.1464Z" fill="#50B4E9"></path><path d="M49.4458 19.3969C49.7654 18.9553 50.2909 18.712 50.8189 18.6298C51.6457 18.4995 52.568 18.5601 53.2521 19.0939C53.8797 19.5198 54.1728 20.2902 54.1819 21.0274C54.1935 22.0485 54.1819 23.0704 54.1877 24.0924C54.2068 24.9051 53.8922 25.7444 53.2712 26.284C52.8088 26.69 52.1804 26.8643 51.5735 26.8436C50.9285 26.8228 50.2477 26.6842 49.7446 26.2541C49.3536 25.9279 49.1228 25.4588 48.9543 24.9881C49.4723 24.9865 49.9895 24.9848 50.5076 24.989C50.8471 25.5178 51.6366 25.7618 52.1555 25.3468C52.671 24.9865 52.744 24.3057 52.7374 23.7279C52.5157 24.021 52.2443 24.2958 51.8856 24.412C51.0978 24.6942 50.1664 24.4319 49.611 23.8143C49.1461 23.3377 48.8995 22.6852 48.8514 22.0277C48.7758 21.1237 48.8912 20.1449 49.4458 19.3969ZM51.0995 19.9025C50.8513 19.9739 50.6437 20.159 50.5383 20.3948C50.2627 20.9776 50.2378 21.6508 50.3424 22.2784C50.4071 22.652 50.5914 23.0555 50.9675 23.2024C51.4017 23.351 51.9521 23.3344 52.2933 22.9899C52.5954 22.6977 52.6785 22.2618 52.7183 21.8609C52.7714 21.2656 52.6743 20.6164 52.2767 20.149C51.9894 19.8178 51.4955 19.7887 51.0995 19.9025Z" fill="#50B4E9"></path><path d="M19.0069 11.6157C20.0048 11.218 21.1338 11.2039 22.1632 11.492C23.0781 11.7153 23.8817 12.2466 24.8032 12.4509C26.6345 12.9473 28.5937 12.5953 30.2873 11.8017C31.4969 12.817 32.4856 14.1751 32.7836 15.7508C30.8859 16.1825 29.0205 16.7719 27.2372 17.5548C25.933 16.4199 24.6305 15.2834 23.308 14.171C22.7576 13.7235 22.2296 13.2354 21.602 12.8958C21.1139 12.6285 20.5145 12.641 20.0089 12.8527C19.0741 13.2453 18.4258 14.0904 17.5176 14.5263C17.0095 14.6948 16.3661 14.699 15.9502 14.3163C16.2955 13.9086 16.6716 13.5276 17.0319 13.1333C17.6064 12.533 18.2224 11.9303 19.0069 11.6157Z" fill="white"></path><path d="M7.62646 15.6196C7.97099 14.0033 9.03527 12.6343 10.3104 11.6256C11.4029 12.0656 12.5303 12.4234 13.6776 12.6916C14.3426 12.8402 15.0432 12.9398 15.7157 12.7746C16.1449 12.6742 16.5658 12.5372 16.9975 12.445C16.5492 12.9091 16.1167 13.3881 15.6775 13.8605C15.5297 14.0141 15.4152 14.2365 15.4973 14.4516C15.6152 14.7662 15.949 14.9231 16.2511 15.0119C16.8074 15.168 17.4408 15.1763 17.9505 14.8733C18.7998 14.3851 19.4648 13.5799 20.4219 13.2827C21.0794 13.0843 21.6929 13.4985 22.1802 13.8928C23.8057 15.2161 25.3772 16.6059 26.9621 17.9781C27.2319 18.1865 27.3738 18.585 27.1995 18.898C26.9322 19.3413 26.2315 19.4758 25.8529 19.0989C25.2428 18.5476 24.6409 17.9873 24.0133 17.4568C23.9236 17.3978 23.7833 17.2609 23.687 17.3846C23.5791 17.4784 23.7069 17.6087 23.7684 17.6867C24.3196 18.2479 24.8825 18.7975 25.432 19.3604C25.6454 19.5613 25.7201 19.9008 25.5624 20.1582C25.2967 20.5865 24.6459 20.8298 24.2158 20.4994C23.7551 20.0727 23.3259 19.6111 22.8494 19.2018C22.739 19.1205 22.6161 18.986 22.4675 19.0582C22.3538 19.1819 22.4858 19.3048 22.563 19.4052C22.9415 19.8294 23.3226 20.2511 23.6995 20.677C23.8198 20.8099 23.9203 20.9958 23.8514 21.1793C23.6754 21.5985 23.115 21.7596 22.7174 21.5794C22.2716 21.1892 21.8814 20.7318 21.404 20.3773C21.3152 20.2951 21.2214 20.2893 21.1234 20.3607C21.0778 20.521 21.2139 20.6305 21.3052 20.741C21.6357 21.0979 21.9611 21.4599 22.2882 21.821C21.8249 22.2826 21.1019 22.0717 20.5888 21.811C20.7781 21.3511 20.7773 20.8049 20.5058 20.3773C20.2343 19.9108 19.7038 19.646 19.1717 19.6401C19.1742 19.2591 19.1152 18.849 18.8496 18.5568C18.471 18.1384 17.8426 18.0064 17.3104 18.1658C16.8987 17.4377 15.861 17.2509 15.1835 17.7108C14.9453 17.4701 14.6439 17.2725 14.2969 17.2526C13.9208 17.2094 13.5639 17.3771 13.28 17.6104C12.3659 16.9952 11.3075 16.6424 10.2631 16.3178C9.39474 16.0455 8.49815 15.8803 7.62646 15.6196Z" fill="white"></path><path d="M13.4364 18.2363C13.6016 17.7723 14.2275 17.5705 14.6293 17.8594C14.8983 18.0213 14.9855 18.3401 15.0112 18.634C15.1374 18.4405 15.2752 18.2446 15.4769 18.1234C15.8455 17.8777 16.3827 17.8843 16.723 18.1765C16.9239 18.3434 16.9455 18.6157 17.0177 18.8498C17.134 18.8946 17.2137 18.7651 17.3075 18.7195C17.8031 18.3534 18.6706 18.7037 18.6922 19.3479C18.7553 19.6675 18.5494 19.9639 18.6001 20.2802C18.9512 20.1399 19.3696 20.0444 19.7133 20.2586C20.2504 20.5342 20.4215 21.3071 20.0396 21.7787C19.6917 22.271 18.9072 22.3299 18.4888 21.8966C18.2323 21.6666 18.1966 21.3121 18.1302 20.9958C17.8745 21.1419 17.6263 21.3985 17.3033 21.3146C16.8152 21.244 16.4092 20.7866 16.5313 20.2785C16.2781 20.3416 16.0614 20.5384 15.7883 20.511C15.4047 20.4711 15.0461 20.2005 14.9249 19.8311C14.8294 19.5787 14.9074 19.3039 14.8319 19.0491C14.6169 19.2242 14.3529 19.3836 14.0632 19.323C13.5725 19.2624 13.2396 18.6929 13.4364 18.2363Z" fill="white"></path></svg>