<svg xmlns="http://www.w3.org/2000/svg" width="70" height="50" viewBox="0 0 70 50" fill="none"><g clip-path="url(#clip0_207_158)"><path d="M44.2706 7C40.7584 6.99784 37.324 8.04544 34.4102 10.0046C34.2093 10.1406 32.8226 11.1321 32.7621 11.1796C30.4574 12.9119 28.9108 13.2122 26.794 12.6808C26.6644 12.6484 26.0575 12.4389 25.8674 12.3654C19.0396 9.79504 11.4235 13.2446 8.85307 20.0723C6.28267 26.9001 9.73003 34.5184 16.5578 37.0888C19.3939 38.1558 22.5107 38.2163 25.3857 37.2594C28.5458 36.3155 30.2608 36.5747 32.2437 37.9722C32.639 38.2509 33.5959 38.8643 33.7924 39.009C41.6829 44.8 52.7745 43.0958 58.5633 35.2053C64.3521 27.3148 62.6522 16.2254 54.7617 10.4344C51.7183 8.20096 48.0441 6.99784 44.2706 7Z" fill="#007858"></path><path d="M37.8769 27.4617C36.838 28.4834 35.2309 28.654 34.0019 27.8743L32.8269 29.7405C34.9242 31.0667 37.6588 30.7751 39.43 29.0385L37.8769 27.4617ZM35.758 19.8585C32.8009 19.811 30.3666 22.1697 30.3191 25.1267C30.3018 26.1938 30.6042 27.2392 31.1853 28.1335L40.8837 23.9884C40.3221 21.5995 38.2117 19.8974 35.758 19.8585ZM32.5461 25.5415C32.3581 23.8135 33.6045 22.2604 35.3325 22.0703C36.3757 21.9559 37.4082 22.3706 38.0843 23.1741L32.5461 25.5415ZM43.9293 17.4479V27.7835L45.7221 28.5287L44.8753 30.5613L43.0977 29.8247C42.7391 29.6714 42.4345 29.4143 42.2229 29.0882C41.9874 28.708 41.8665 28.2652 41.8794 27.8181V17.4501H43.9293V17.4479ZM28.3146 17.4479V27.7835L30.0923 28.5287L29.2456 30.5613L27.4679 29.8247C27.1223 29.6714 26.8285 29.4187 26.6212 29.1011C26.3836 28.721 26.2648 28.2782 26.2756 27.8311V17.4479H28.3146Z" fill="white"></path><path d="M52.753 22.3706C54.319 23.1266 54.9778 25.008 54.2218 26.5761V26.5783L56.2047 27.5308C57.4834 24.8654 56.358 21.6664 53.6926 20.3877C51.727 19.446 49.3877 19.7872 47.7764 21.2539L49.2603 22.8825C50.2085 22.0099 51.5952 21.809 52.753 22.3706Z" fill="#C7D540"></path><path d="M50.0229 28.0514C48.4547 27.2954 47.7938 25.414 48.5476 23.8459L46.5647 22.8912C45.2947 25.5609 46.4308 28.7556 49.1027 30.0256C51.0575 30.9544 53.3774 30.6153 54.9866 29.1681L53.5027 27.5416C52.5523 28.4013 51.1785 28.6022 50.0229 28.0514ZM24.2498 28.2004V25.2088C24.2498 22.2626 21.8608 19.8758 18.9167 19.8758C15.9727 19.8758 13.5815 22.2626 13.5815 25.2088C13.5815 28.1551 15.9705 30.544 18.9167 30.544C19.744 30.544 20.5583 30.3518 21.2992 29.9824L20.4417 27.9758C18.9167 28.8182 16.9965 28.2674 16.1541 26.7424C15.8949 26.2737 15.7588 25.7467 15.761 25.211C15.7588 24.6948 15.8819 24.1872 16.1239 23.7292C16.5537 22.9236 17.3097 22.3425 18.1996 22.1373C18.4329 22.0812 18.6705 22.0531 18.9103 22.0531C20.6555 22.0509 22.0725 23.4657 22.0747 25.211V28.1767C22.0617 28.6238 22.1805 29.0666 22.4181 29.4468C22.6319 29.7729 22.9343 30.0278 23.2929 30.1833L24.293 30.5786L25.1419 28.546L24.2498 28.2004Z" fill="white"></path></g><defs><clipPath id="clip0_207_158"><rect width="54" height="35.4434" fill="white" transform="translate(8 7)"></rect></clipPath></defs></svg>