<svg xmlns="http://www.w3.org/2000/svg" width="62" height="34" viewBox="0 0 62 34" fill="none"><mask id="mask0_305_128" style="mask-type:luminance" maskUnits="userSpaceOnUse" x="8" y="6" width="46" height="22"><path d="M53.9634 6.19873H8.60449V27.8009H53.9634V6.19873Z" fill="white"></path></mask><g mask="url(#mask0_305_128)"><path d="M30.0369 17.3683V22.6413H28.3359V9.60059H32.7584C33.8357 9.60059 34.8563 9.99748 35.6501 10.7346C36.4438 11.4149 36.8407 12.4355 36.8407 13.5128C36.8407 14.5901 36.4438 15.5539 35.6501 16.291C34.8563 17.0281 33.8924 17.425 32.7584 17.425L30.0369 17.3683ZM30.0369 11.1881V15.724H32.8718C33.4955 15.724 34.1192 15.4972 34.5161 15.0437C35.4233 14.1932 35.4233 12.7757 34.5728 11.9252L34.5161 11.8685C34.0625 11.4149 33.4955 11.1314 32.8718 11.1881H30.0369Z" fill="white"></path><path d="M40.7521 13.4565C41.9994 13.4565 42.9633 13.7967 43.7004 14.4771C44.4375 15.1575 44.7777 16.0647 44.7777 17.1987V22.6417H43.1901V21.3944H43.1334C42.453 22.4149 41.4891 22.9252 40.3552 22.9252C39.3913 22.9252 38.5408 22.6417 37.8604 22.0747C37.2367 21.5078 36.8398 20.714 36.8398 19.8635C36.8398 18.9563 37.18 18.2192 37.8604 17.6522C38.5408 17.0853 39.5047 16.8585 40.6387 16.8585C41.6592 16.8585 42.453 17.0286 43.0767 17.4254V17.0286C43.0767 16.4616 42.8499 15.8946 42.3963 15.5544C41.9427 15.1575 41.3757 14.9307 40.7521 14.9307C39.7882 14.9307 39.0511 15.3276 38.5408 16.1214L37.0666 15.2142C37.9738 14.0235 39.1645 13.4565 40.7521 13.4565ZM38.5975 19.9202C38.5975 20.3738 38.8243 20.7707 39.1645 20.9975C39.5614 21.281 40.015 21.4511 40.4686 21.4511C41.1489 21.4511 41.8293 21.1676 42.3396 20.6573C42.9066 20.147 43.1901 19.5233 43.1901 18.8429C42.6798 18.446 41.9427 18.2192 40.9788 18.2192C40.2985 18.2192 39.7315 18.3893 39.2779 18.7295C38.8243 19.013 38.5975 19.4099 38.5975 19.9202Z" fill="white"></path><path d="M53.9613 13.7397L48.3481 26.6103H46.6471L48.745 22.1311L45.0596 13.7964H46.8739L49.5388 20.2034H49.5955L52.2036 13.7964H53.9613V13.7397Z" fill="white"></path><path d="M23.2906 16.2345C23.2906 15.7242 23.2339 15.2139 23.1772 14.7036H16.0898V17.5952H20.1154C19.9454 18.5024 19.4351 19.3529 18.6413 19.8632V21.7342H21.0793C22.4968 20.4302 23.2906 18.5024 23.2906 16.2345Z" fill="#4285F4"></path><path d="M16.0879 23.5487C18.1291 23.5487 19.83 22.8683 21.0774 21.7343L18.6393 19.8633C17.959 20.3169 17.1085 20.6004 16.0879 20.6004C14.1601 20.6004 12.4592 19.2963 11.8922 17.4819H9.39746V19.4097C10.7015 21.9611 13.253 23.5487 16.0879 23.5487Z" fill="#34A853"></path><path d="M11.8906 17.4815C11.5504 16.5743 11.5504 15.5537 11.8906 14.5899V12.6621H9.39585C8.31857 14.76 8.31857 17.2547 9.39585 19.4092L11.8906 17.4815Z" fill="#FABB05"></path><path d="M16.0888 11.5285C17.1661 11.5285 18.1867 11.9254 18.9804 12.6625L21.135 10.508C19.7742 9.26058 17.9599 8.5235 16.1455 8.5802C13.3106 8.5802 10.7024 10.1678 9.45508 12.7192L11.9498 14.647C12.4601 12.8326 14.1611 11.5285 16.0888 11.5285Z" fill="#E94235"></path></g></svg>