<svg fill="#FFDE00" height="200px" width="200px" version="1.1" id="Layer_1" xmlns="http://www.w3.org/2000/svg" xmlns:xlink="http://www.w3.org/1999/xlink" viewBox="0 0 512.213 512.213" xml:space="preserve" stroke="#FFDE00"><g id="SVGRepo_bgCarrier" stroke-width="0"></g><g id="SVGRepo_tracerCarrier" stroke-linecap="round" stroke-linejoin="round"></g><g id="SVGRepo_iconCarrier"> <g transform="translate(1 1)"> <g> <g> <path d="M488.067,187.8L291.8,13.72c-20.48-19.627-52.907-19.627-73.387,0l-65.707,59.733v-23.04h8.533 c5.12,0,8.533-3.413,8.533-8.533V7.747c0-5.12-3.413-8.533-8.533-8.533H58.84c-5.12,0-8.533,3.413-8.533,8.533V41.88 c0,5.12,3.413,8.533,8.533,8.533h8.533v98.133L22.147,187.8c-5.973,5.973-7.68,14.507-5.12,21.333s10.24,11.947,17.92,11.947 h32.427v238.933H58.84c-5.12,0-8.533,3.413-8.533,8.533v34.133c0,5.12,3.413,8.533,8.533,8.533h392.533 c5.12,0,8.533-3.413,8.533-9.387v-34.133c0-5.12-3.413-8.533-8.533-8.533h-8.533V220.227h32.427 c8.533,0,15.36-4.267,17.92-11.947C495.747,201.453,494.04,192.92,488.067,187.8z M476.973,203.16 c-0.853,0.853-1.707,0.853-1.707,0.853h-40.96c-5.12,0-8.533,3.413-8.533,8.533v256c0,5.12,3.413,8.533,8.533,8.533h8.533v17.067 H67.373V477.08h8.533c5.12,0,8.533-3.413,8.533-8.533v-256c0-5.12-3.413-8.533-8.533-8.533h-40.96c-0.853,0-0.853,0-1.707-0.853 c0-0.853,0-1.707,0.853-2.56l47.787-40.96c1.707-1.707,2.56-4.267,2.56-6.827V41.88c0-5.12-3.413-8.533-8.533-8.533h-8.533V16.28 h85.333v17.067h-8.533c-5.12,0-8.533,3.413-8.533,8.533v51.2c0,3.413,1.707,6.827,5.12,9.387 c3.413,0.853,6.827,0.853,9.387-1.707l80.213-73.387c13.653-13.653,34.987-13.653,49.493,0l196.267,174.08 C476.973,201.453,477.827,202.307,476.973,203.16z"></path> <path d="M259.373,126.36c-35.84,0-69.973,15.36-94.72,42.667c-35.84,40.107-38.4,99.84-6.827,142.507l94.72,145.067 c0.853,2.56,4.267,4.267,6.827,4.267s5.12-1.707,7.68-5.12l93.867-144.213c31.573-43.52,29.013-103.253-6.827-143.36 C329.347,141.72,295.213,126.36,259.373,126.36z M346.413,302.147l-87.04,133.973L171.48,302.147 c-27.307-35.84-24.747-87.04,5.973-121.173c21.333-23.04,51.2-36.693,81.92-36.693s60.587,13.653,81.067,35.84 C371.16,214.253,373.72,265.453,346.413,302.147z"></path> <path d="M254.253,186.093c-32.427,0-58.88,26.453-58.88,58.88c0,32.427,26.453,58.88,58.88,58.88 c31.573,0,58.027-26.453,58.88-58.88C313.133,212.547,286.68,186.093,254.253,186.093z M254.253,287.64 c-23.04,0-41.813-18.773-41.813-41.813s18.773-41.813,41.813-41.813c22.187,0,41.813,18.773,41.813,41.813 S277.293,287.64,254.253,287.64z"></path> </g> </g> </g> </g></svg>